/* XPM */
static char *_689e0484f214e4deef12f0e05107743ApKUoBzlArM7RtOH[] = {
/* columns rows colors chars-per-pixel */
"64 63 251 2 ",
"   c #2A1B1C",
".  c #321E1D",
"X  c #29271B",
"o  c #362915",
"O  c #291B2B",
"+  c #351C2A",
"@  c #2B1D33",
"#  c #2C1D3C",
"$  c #271A3B",
"%  c #331C35",
"&  c #3A1B34",
"*  c #331D3B",
"=  c #3B1C3B",
"-  c #361539",
";  c #1A282C",
":  c #192837",
">  c #1F3737",
",  c #25232E",
"<  c #2C242C",
"1  c #2B2A2D",
"2  c #252525",
"3  c #32242E",
"4  c #352B2D",
"5  c #372727",
"6  c #33312F",
"7  c #232333",
"8  c #2D2333",
"9  c #242C34",
"0  c #2B2A34",
"q  c #24233C",
"w  c #2D243B",
"e  c #232B3D",
"r  c #2C2B3B",
"t  c #332434",
"y  c #3B2434",
"u  c #352A34",
"i  c #3A2C35",
"p  c #34243C",
"a  c #3B233B",
"s  c #342A39",
"d  c #3C2D3B",
"f  c #2A343C",
"g  c #363336",
"h  c #3C3335",
"j  c #35343B",
"k  c #3E323C",
"l  c #3D3B3C",
"z  c #373B37",
"x  c #2F312E",
"c  c #0C212C",
"v  c #43151F",
"b  c #441C3C",
"n  c #451937",
"m  c #58193A",
"M  c #75173A",
"N  c #452929",
"B  c #47382E",
"V  c #44243C",
"C  c #4C243D",
"Z  c #432C3C",
"A  c #4A2B3D",
"S  c #452936",
"D  c #562B3C",
"F  c #433934",
"G  c #42343D",
"H  c #4B343D",
"J  c #45393D",
"K  c #4A3B3D",
"L  c #483533",
"P  c #51373C",
"I  c #3B413E",
"U  c #394237",
"Y  c #36442A",
"T  c #46443B",
"R  c #57443A",
"E  c #1D1F51",
"W  c #2D1E42",
"Q  c #271C45",
"!  c #351C43",
"~  c #3C1C44",
"^  c #361B4B",
"/  c #3B1D4C",
"(  c #3A1446",
")  c #281E59",
"_  c #3A1A57",
"`  c #1B2A48",
"'  c #162B4C",
"]  c #2B2443",
"[  c #262944",
"{  c #242B4B",
"}  c #2D2B4C",
"|  c #282547",
" . c #342443",
".. c #3C2443",
"X. c #332C43",
"o. c #3B2C42",
"O. c #33224C",
"+. c #3C234B",
"@. c #3A2B4C",
"#. c #2B3546",
"$. c #343342",
"%. c #3D3242",
"&. c #3C3C43",
"*. c #34334A",
"=. c #3D3C4A",
"-. c #363C45",
";. c #292856",
":. c #362854",
">. c #2C3856",
",. c #373357",
"<. c #211E6F",
"1. c #1B2C6C",
"2. c #292B68",
"3. c #352D67",
"4. c #2C356B",
"5. c #3A3569",
"6. c #373677",
"7. c #303578",
"8. c #570D4D",
"9. c #431C44",
"0. c #4B1D43",
"q. c #441B4B",
"w. c #4A1C4B",
"e. c #461548",
"r. c #511B4C",
"t. c #571847",
"y. c #5A0C56",
"u. c #4B1354",
"i. c #451B53",
"p. c #4C1B54",
"a. c #4B135C",
"s. c #4B1C5B",
"d. c #451757",
"f. c #541553",
"g. c #5B1454",
"h. c #541B54",
"j. c #55195A",
"k. c #410F4E",
"l. c #681A49",
"z. c #741548",
"x. c #6A0B5B",
"c. c #661659",
"v. c #75175C",
"b. c #750B4F",
"n. c #432443",
"m. c #4C2544",
"M. c #432C43",
"N. c #4A2C44",
"B. c #44244A",
"V. c #4B244C",
"C. c #442D4B",
"Z. c #4B2C4B",
"A. c #52234D",
"S. c #562747",
"D. c #443542",
"F. c #4B3444",
"G. c #453943",
"H. c #493C46",
"J. c #493B45",
"K. c #46354A",
"L. c #4A334A",
"P. c #453A4A",
"I. c #4B3D49",
"U. c #4C3F49",
"Y. c #4B3C4A",
"T. c #523444",
"R. c #523C47",
"E. c #53344B",
"W. c #5C354B",
"Q. c #533C4B",
"!. c #5A3B4D",
"~. c #5A3A45",
"^. c #442354",
"/. c #4B2452",
"(. c #492754",
"). c #562654",
"_. c #453552",
"`. c #4B3B52",
"'. c #573A54",
"]. c #67264B",
"[. c #74264E",
"{. c #672655",
"}. c #7B2955",
"|. c #643955",
" X c #78325A",
".X c #4A0D66",
"XX c #481664",
"oX c #521764",
"OX c #540F62",
"+X c #751462",
"@X c #41336E",
"#X c #6A3561",
"$X c #394345",
"%X c #344866",
"&X c #454344",
"*X c #4C4345",
"=X c #45434B",
"-X c #4D404A",
";X c #4D424B",
":X c #4B4A4B",
">X c #51444B",
",X c #52434D",
"<X c #554748",
"1X c #4D4352",
"2X c #474555",
"3X c #534552",
"4X c #544952",
"5X c #594758",
"6X c #604259",
"7X c #63464B",
"8X c #464978",
"9X c #514C62",
"0X c #881755",
"qX c #971855",
"wX c #8C114E",
"eX c #B90E5C",
"rX c #AC155A",
"tX c #A31B5A",
"yX c #A3135A",
"uX c #B6135C",
"iX c #A70C52",
"pX c #862758",
"aX c #952152",
"sX c #A6205F",
"dX c #861665",
"fX c #930F63",
"gX c #B40A64",
"hX c #B61365",
"jX c #A91662",
"kX c #A72160",
"lX c #922964",
"zX c #D80E64",
"xX c #C8156B",
"cX c #D50578",
"vX c #C60E67",
"bX c #393E87",
"nX c #2E3692",
"mX c #2F3DA9",
"MX c #142F8A",
"NX c #463A88",
"BX c #394788",
"VX c #3B4991",
"CX c #2A459D",
"ZX c #3548AA",
"AX c #3D51AD",
"SX c #3B4CB8",
"DX c #454482",
"FX c #474695",
"GX c #4B5593",
"HX c #4A4FB0",
"JX c #444DCA",
/* pixels */
"3X5X9X5X5X9X5XY.d Z h Z Z Z d S o.%.d t d %.%.d d H D.G.G.F.G.G J.J.P.G.D.d o.G o.d o.d o.d d o.D.%.d d o.%.D.D.D.D.G.J.D.G G k ",
"K.P.`.U.P.Y.U.`.Z d Z d k d k h D.d d D.K.G.d d d J G.G.G.G.F.G D.K.K.G.D.o.G o.D.D.D.D.%.D.%.D.d o.K.K.D.%.o.o.D.G D.G.G.G.G k ",
"G d d %.o.D.D.P.J.H.J.J.J.J.J.J.D.D.G.U.,XG.D.d d D.F.H J.J.D.Z t i d D.D.D.G.G.J.G.G.G.G.K.J.J.d K.;X`.K.d d d G k G G.H.G.G i ",
"D.d o.G.G.D.o.G.J.G.J.J.J.J.J.J.D.J.U.-XY.D.k D.Z G H D.F.J.J i i d G D.G.F.G.G.G.G.G.G.G.G.D.G.P.Y.Y.G.D.d %.G G G.G.G.G.G k d ",
"D.D.D.H.P.G.G.Y.k k k k k k k k G.H.U.J.D.J J D.i J U.J.D.H G i G.D.G.J G.G.D.G.G G G G G G G G ;XP.G k D.o.G d G G.Y.J.G i g G ",
"D.D.k G D.J.-X,X;X-X;X-X-X-X-X-XH.J.J d G D.J.G y G.Q.J.d i d Z D.J J G.J.Y.*X-XQ.U.-X-X-XU.U.U.H.D.G G J.G.k i D.G.J.J d i d G ",
"G D.G G G H.-X-X4X4X3X4X4X1X4X4XH.J G h G J.J F G Y.Y.G i i G J G S G J J.>X>X>X>X>X>X>X,X>X>X>XJ G G G.J.G.G d H.G.G d d d G G.",
"G H.-XG.H.-XH.G l %.l k &.l %.l J h Z J J.J G G U.J.H i i Z G Z G.K K J.J.U.G.G J D.J J G.J D.J G D.G.G.J G G.J.-XG u 3 h D.J.G.",
"G.G.G.H.,X;XG i d d d d a d M.D.d S G.J.J F J >X>Xd u i G G D.J.G.G.&X,X-XG i u d d d p d %.D.d G J J.J.G G G.J.d u i i D.G.G.G ",
"D.G.H.-XY.H.D.G J.G d J Q.Q.K.p h k h G k G.J.J.k i u k G.D.G.G.k H.;XU.J.D.G G D.D.G.-XJ.d d G H.G G D.H.U.J.D.u d k G G G.G.G.",
"D.H.-XY.G.G G.H.K G J R.5X,XD.i J.G.J G G.-XH.G u u k G G.D.D.G.P.U.U.D.G G.G.G.G G.3X4XU.h k H.H.G.D.J.U.H.k u i G H.H.D.k D.H.",
"H.U.-XG.G k G.-XF K <X*XJ h d G G.G.F.J.-XU.J u i d G G.G.G G D.5X;XG.G D.J.D.k J ;X<XJ i h J J d D.P.U.J.k t t i G H.H.G.G.H.-X",
"-X-XJ.D.G D.G.G.T *X;XG 3 < i G.D.G D.U.D.G i i G J D.D.D.G.G.J.>XJ.G G D.D.G G >X>XJ u + i k G d D.P.P.o.d d D.G G D.G.H.U.-X-X",
";XH.D.G G.H.G.G.3X;XG.u 3 8 d D.4X;XU.P.D.s d D.J D.D.J D.J.-X>XG G G G.G.G G.-X3XG 3 8 t i G.3X3X1XK.D.d s d G.H.G G D.U.-XY.J.",
"G.G.G G.G.Y.-XY.1XD.s 8 8 p X.o.3X1XY.D.d d o.G.D.G.D.G J.U.U.J.k G D.G.G.G.Y.;XD.p @ t p d K.'.3XY.D.d d o.%.%.G.D.G.J.-XU.G.k ",
"d k G G.G.-X;X,X%.X.w 8 w w  .X.t p t t d D.G.D.G.J.D.D.U.U.J i G G.G.G G H.-X-X .o.o.@ @ p X.p p t t p %.G.K.D.D.G.H.-X-XG.G i ",
"F.Y.G.l T :X:X%.O./ d.a.u.e.% 5 O < t t d %.D.D.S J &X=X;XD.m.m.D.D.%.D.&X;Xl 1 k..X.X.X( % , , t y i G G.T.J.D.G T I G 0.t.S.4 ",
"D.F.&XG.&X;XK.o.W ^ d.u.p.q.H J D.D.D.D.G.K.G.K.K G.-XH.K.Z.S.).d D.Y.3X`.K.s O i.XXXXa.V.A l k Z k H J G.J.D.H Q.*XI d A.{.S.d ",
"D.G.Y.-X;XL.B.q.# ! / i.p.Z.F.J.P.J.P.J.K.D.G.G.&X*XH.M.M.V.).).u G ;X`.K.+.~ ( / / _ q.E.E.P J J.H.J.F.J.D.J.Y.5XH.g a r.{.).Z ",
"J.G.Y.;XL.B.q.j.p * ( ~ B.L.D.G D.D.D.D.D.G.G.D.:X-XD.d 9.w.f.g.g G P.M.~ 9.q.i.* * ~ o.N.H H H D.G.G.D.k G -X3XL.Z t % e.j.A.i ",
"-XG.G.G.o.~ q.j.s t * ..L.P.&XG.D.D.J D.J.J.H.H.&.k d ..b e.e.p.g G.k % - 9.^.i.# s k G.G.J H P G.G.G.G.G.G.G.G.d y u = e.s.V.M.",
"J.G.k i t % ~ (.O t D.;X3X4X,X;X>X,X>X>X-XU.-XU.l s a V m.n.B.Z.i G.%.t % +.B.- p %.T &X=X-XQ.<X4X,X;X;X4X1XG.i t i d n./.(.C.k ",
"D.D.l g 0 t o.L.0 g H.:X:X;X;X*X>X>X>XU.U.H.H.J.%.$.d A F.D.D.&.d G.G.s s %.%.p K.G.T T =X2X1X;X;X-X&XI.-XH.G.k j h F D._._.%.j ",
"N.F.K l z g l G.;X;XT T U l l G.J J J J J J J J _.K.L.F.G.J.I z d K.G.d u j G.&X`.*XT U &.=.*.%.0 u u < 2 8 j &XI l h D._.,.j g ",
"K.%.D.J.K L G H.Y I 2X=.G.l h G.D.J.D.D.D.G G G J.G.G G.;X4XU.G y G.D.%.k &.1X=X4XY.%.%.P.Y.D.t y a s , @ V {. X'.F.J.G l G.M.M.",
"%.%.J K K J D.U.w u ,X,XJ G.G.G.D.D.J G G G k k D.D.G.H.-XJ.D.D.i H.H.G.D.%.=.p U R <XT k K.P.D.=.&.M.S.z.tXxXzX6X'.-XJ l k p d ",
"o.D.J.K K J.Q.L.! @ B B P !.Z.D.G.J.J.G.J D.D.D.G D.H.U.G.G k D.i G.G.J.Y.P.K.8 X T <X*XJ l D.H.P.P.F.N.].pXqXiXE.F.U.G.l D.d o.",
"D.P.U.J K Y.'.'.- @ , 1 <X5XA %.D.k G G k G k k G.U.-XG.G G G k i G.G D.Y.U.Q.a , 0 l ;X;XJ h J A H %.g f f 0 7 % a J.*X&XI.D.M.",
"F.U.*XG.G.U.'.'.4 | 1.4.,.&XI.2XJ.J.H.H.J.J.J.J.;X-XH.D.G G.G.G d Y.F.J.'.`.!.a ) 2.,.,.`.<XT B D.G.$X=.D.P.o.t & y J.J.H.G.d o.",
"F.J.G.&.G.Q.#X#X5 E AXAXE s 2X9X5X4X5X4X4X4X4X4X3XJ.G G G.H.G.D.5 D.F.R.!.!.!.V <.FXDX;.@.4X<XR 4X4X;X,X3X6XE.m.V a J G l D.d o.",
"F.J.G.&XI.L.).{.n | VXVX| 5 R.=XH.H.G.G.H.J.J.H.H.G G G.H.J.G.D.3 G.F.R.E.E.W.b ;.8X8X| X.G.F.J.H.H.D.D.F.Y.D.d L.Z G.l l G.M.M.",
"R.J.&X:XP.M.w.t.S.d ` : g P N i k i k d k k h d d G G.G G.G.G.G G >XR.G.C S S.n #.#.#.X.%.t O y 2 < 3 3 y V M.M.E.L.Y.G.G.H.d o.",
"G.H.-XH.G.G G D.M.H &.j j z h G $.*.9 2 A V.n.B F P J -.$X=.o.X.C H.$Xl N.D A z D P J S y O O b X.X X t ! V V b B.S.n.p V.C.#.*.",
"J.J.D.G k G D.D.G.J.D.%.G.K J.U.L a < 2 5 V o.l 5X~.F.$X=XA & & Z P.G.k G.K J J Y.:X&Xp % 0 0 = p 8 O 3 p ! t 3 / w./ ] 9.M.X.n.",
"G G k k G D.G.J G.D.H F.R.,X,XQ.N ^.6.:.O  .5.4.G A G.=XF.t.m N.k G.G.D.G.G.G.;X%XGXBX] p 4.4.@ :.@X:.: } 7.;.; k.u./ $ ~ n.p C ",
"i k G D.G.G.D.D.G.D.H Y.,X;X&.j 8 6.HXVX;.4.ZXmXO G 2Xj + M ].E.l D.J.Y.R.W.!.5X%XJXSXO.*.SXZXr 7.HXmX` %XHXnX; y.x.d.Q * p u C ",
"i k J.H.G.D.G.H.G.J.J.-X=X=.#.: c ' CX%X: ;.BXMX; l =.0 O m ].G G J G.Y.].pX X].#.mXnX@ f CXMXX 1.CXnXc >.VX7.; x.+Xp.W = p f F.",
"k G.J.G.G.G.H.;X>X;X:X=X&X%.a - o O E |   + | ' q % & w t N.D %.D l -.F. XpX}.C 2 ] Q   2 ` r v % _ #   u ) Q X c.v.V.p a k z J.",
"G.D.D.G.H.H.J.K J.H.G.G.N.t.z.0XaXwXz.M M 8.0.< r t.m 0.%.D.Z H H J &.P.W.{.{.n.4 4 5 S h 4 m wXwXwXM [.t.9...i n.S.n.p A D.-.G.",
"J.G G G.;X,XG i i d g s n z.yXxXvXcXcXeXgXdXy.C @ l.0Xl.M.D.J.Y.J J Q.R.o.o.@.C.G d S N.C.= z.xXcXzXuXfXx.g.^.Q 8 S i s D T.D.H ",
"k G.;X,XU.D.G D.r  .p.s.9.V V.).C +._.:./ /.s.XXq S.l.%.$XD.H $XG Y.`.`.@.D.G F G.M.A P P.:./ S S./.(.V.h..Xi.i i i i G G.G.D.G ",
"D.J.U.H.G.G.G G.7 ! p.w.& O 3 & + O q q % q.i._ q m.S.D.l G L F -XU.K.%.o.D.J F &.P.Q.R G ] % N + + @ & e.a./ t i k G.G.G.G.G.G.",
"H.H.J.G.D.J G.G.w ! p.p.& 2 1 0 o X e $ & m./.XXr H F.G.$XF K R 5XY.%.o.D.D.J J l P.>XB 6 e p o 5 1 7 t 0.s.i.s k G.H.H.G.G.J.U.",
";XU.D.G G D.D.G.0 ! s.p.! $ [ ` o < #.] - m.w.p.g S G G G l J *XY.G.%.K.P.D.H J &X;XG.5 , ;.} O q { | @ = /./.G H.G.D.D.G.H.-X,X",
"-XH.D.G D.G.G.D.9 * u.XX_ 2.7.bX .:.8X5.W = B.V.!.R.Q.Q.*X*X:X:XD.o.G G.G.D.G.U.;XP.= O } bX6.Q 2.VX6.W & V.Z.G H.D.G D.H.U.U.Y.",
"G.D.D.J G.G.G.G 2 % u.oXXX6.VXHX_ @XGXDX^ ! M.Y.R.!.3X3X,X|.!.%.o.o.d k J G.P.1X%.+.- # @XFXNX:.NXFXFX:.Z S.F.T G.G D.H.;X;XG.d ",
"G.G D.D.D.J.G.G.: # u.y.( O.,.4.& O.6.2.Q t 8 s w S d s n.[.[.=  .d d F K U.J.K.+.:.q.= ,.6.5.# O.@X3.t L ~.Y.:XH.Y.U.U.H.J k i ",
"G D.J D.G.G.G.J.e ^ oXg.n O 8 ; N + | | $ k 0 ; > % t $ b pXlXS.# p i G *X,XG.t ^ d.w.& @ O. .+ . p t 5 R 7X`.2X,X4X4XU.G i d G ",
"Z.M.G J F K J.H { $ ^.h.u.s.d._ q.! ~ * : ] e.{ t / p.n.n.dXdX0.4 5 A ;X5X).w.~ ) d.j.j.d.^.s.s.oXa.u.^ / g.h.+.(.o.a r.v.+X).k ",
"Z.n.F.J h G J.F.9.- w.f.8.y.y.y.f.^ w...e e.b.e.t / p...M.+XdXB.1 i Z K.`.A.w./ q.h.g.8.f.u.f.8.y.x.u.^ ( 8.t.^ w.~ & 0.x.v.).s ",
"B.M.F.H.J J Q.Q.} q [ [ $  .! +.W Q / 9.q ( 8.O.t +./.o.X.c.v.p 0 Z M.X.X.V.p.+.` | ! W | | } W O._ _ O./ i.| : { e e ~ f.c.A.M.",
"m.M.D.I.J.P.`._.o.* a - * W : : h./ g.h.# e.c.:.5 B.(.%.X.y.c.] 8 M.Z.w W B.q. .q p n.~ p  . ...+.+./ O.~ f.w. .....t e.8.f.V.k ",
"Z.n.D.G.Y.`.`.B.wXwXuXeXrX0Xt.y cXjXfX{.* 8.fX+Xu C.(.-.$.g.y.| 7 N.Z.w $ B.B.W b.qXuXuXyXqXtXtXyX0Xt.~ e.wXgXgXhXjXwX0Xx.j.B.j ",
"Z.a o.P.P.`.C.! wXqXjXrXsX}.V r xXtX0X].p t.wX{.6 K.Z.j $.g.y.} 8 Z.L.w w N.Z.w M wXkXtXaXaXsXqXqX0XS. .w.wXjXhXhXkXqX0X+Xj.B.$.",
"N.M.C.K.o.o.+.^ W ^ / = ..r ; : ).C.S.C r Z ).$Xz P.L.k %.c.x.+.s F.F.u 0 F.M.0 : w ..a  .X. .a p & 8 7 # 0.r...q.9.b e.i.s.V.Z ",
"m.M.K.D.w #  ./ / O.} [ e p - S.$.f A Z j N.t.$.T &XZ.k %.x.x.^.k T.F.i i F.J u : e * * q X.r $ 3 u w 9 r ..X.` }  .a +.^.^.V.A ",
"M...Z.`.(.i.XX.Xn ;.ZXZX1., B N G.G.F.G.J F.G.F.P.G.C.B.w.w.f.j.A A H.I J T.K.: 5 K &Xk k D.%.l S.K.$.m.wXeXvXeXvXuXyX0Xl.A...X.",
"G d D.L.+.e.a.OX& O.VXVX;.f L N G.D.G.F.F.G.G.G.l G.H.G.n.n.q.w.k F.G.I l T.P.e 5 J.*XK J.Q.T.Y.P.$X-.L.[.tXuXrXiXyX0X}.{._.*.#.",
"Z k l -.p e.y.x.t # >.,...M.S h J H D.H H H D.D.l T *XY.d a  ...-.%.G.U J |.E.r < u o.Y.!.A A ~.l &.l d H N.m.n C V Z M.K.K.-.$.",
"G i l -.8 n l.v.w 7 < 3 A W.Z &XF.Y.Y.Y.J.Y.J.J.K J.U.K.....+.^.-.M.G.$XY.|.W...;.;.,._.Y.H S ~.J H H G -.U > ; ; ; 9 j %.G.N.S ",
"Z g -.l s b c.v.s 0 6 S W.|.'.1X3X,X3X,X,X3X,X3X!.'.V.q.q.i.s.^.D.N.F.U.W. X[.b 1.VXFX;.,.4X4X*X>X,X<X!.Q.,XF.S H Z D.F.Y.G.A y ",
"M.k G.&.d 0.{.v.p r *.o.E.!.J.1XU.J.R.U.J.U.R.J.'.).q.e.u.a.oXoXM.N.E.R.W.}.].b <.BX6.' ` =.&Xh G.&X&XG.Y.U.L.M.D.%.D.G.H.G.l k ",
"C.o.P.Y.N.m.h.g.4 } 5.5.X.S M.`.d D.H G D.H D.G K.C.B.B.i.p.j.a.o.N.J.I.F.].{.* W *.} w @ t t u S g e e o.S.S.N.N.N.Z.D.D.%.o.$."
};
