/* XPM */
static char *_6288180101246b282aa3b6f11f6a56bkKGwH3jAL90Aivju[] = {
/* columns rows colors chars-per-pixel */
"64 63 252 2 ",
"   c #371F1D",
".  c #281914",
"X  c #1C390A",
"o  c #1D2813",
"O  c #1D331C",
"+  c #1B3A18",
"@  c #0B371C",
"#  c #262A07",
"$  c #27320E",
"%  c #2C2B1A",
"&  c #292518",
"*  c #352917",
"=  c #233B15",
"-  c #2B331C",
";  c #243B1B",
":  c #2B3B1C",
">  c #273617",
",  c #34341A",
"<  c #363819",
"1  c #38310C",
"2  c #2B1E29",
"3  c #2F1B30",
"4  c #1C2A29",
"5  c #1D3B24",
"6  c #1B3329",
"7  c #123230",
"8  c #2C2424",
"9  c #242D25",
"0  c #2B2B24",
"q  c #25252A",
"w  c #2C252C",
"e  c #2C2B2B",
"r  c #242A29",
"t  c #322524",
"y  c #33252C",
"u  c #332C2D",
"i  c #392928",
"p  c #2C3423",
"a  c #233C23",
"s  c #2B3C24",
"d  c #25342C",
"f  c #2C342C",
"g  c #243C2B",
"h  c #2C3B2B",
"j  c #233323",
"k  c #323425",
"l  c #323C24",
"z  c #33342B",
"x  c #3A342C",
"c  c #333B2C",
"v  c #3B3C2C",
"b  c #3C3925",
"n  c #2D2432",
"m  c #2C2C33",
"M  c #282A38",
"N  c #332533",
"B  c #3B2535",
"V  c #342B33",
"C  c #3A2C36",
"Z  c #35263A",
"A  c #362C3A",
"S  c #3C2D3B",
"D  c #3A253D",
"F  c #2E3232",
"G  c #2C3B32",
"H  c #273635",
"J  c #343433",
"K  c #3C3334",
"L  c #343B35",
"P  c #3B3B33",
"I  c #35343A",
"U  c #3D323C",
"Y  c #333B3C",
"T  c #3C3B3C",
"R  c #533E16",
"E  c #4D321F",
"W  c #4D1C36",
"Q  c #452B2A",
"!  c #433727",
"~  c #43253B",
"^  c #422D3C",
"/  c #4B2D3E",
"(  c #472735",
")  c #443434",
"_  c #42343E",
"`  c #4B333E",
"'  c #443A3D",
"]  c #4A3A3D",
"[  c #453D35",
"{  c #1A481A",
"}  c #1D521C",
"|  c #17581E",
" . c #0D4E0A",
".. c #29431D",
"X. c #264719",
"o. c #35431E",
"O. c #26561B",
"+. c #2B4A0E",
"@. c #156219",
"#. c #2B631C",
"$. c #194827",
"%. c #1A5725",
"&. c #195A3A",
"*. c #105430",
"=. c #244423",
"-. c #2C4224",
";. c #244B24",
":. c #2B4C23",
">. c #2C442A",
",. c #28482B",
"<. c #324424",
"1. c #33422B",
"2. c #324B2B",
"3. c #394726",
"4. c #255224",
"5. c #2B5423",
"6. c #235B22",
"7. c #2B5A24",
"8. c #27552B",
"9. c #36552B",
"0. c #2A4736",
"q. c #344233",
"w. c #3B4532",
"e. c #34453A",
"r. c #3C433B",
"t. c #354A3A",
"y. c #374A37",
"u. c #2A5537",
"i. c #355439",
"p. c #186726",
"a. c #18683B",
"s. c #167535",
"d. c #28632D",
"f. c #296635",
"g. c #366439",
"h. c #2D733D",
"j. c #34662B",
"k. c #47451A",
"l. c #505011",
"z. c #434C29",
"x. c #41433C",
"c. c #484537",
"v. c #554A38",
"b. c #535638",
"n. c #4B5230",
"m. c #65582E",
"M. c #71682A",
"N. c #696736",
"B. c #746F32",
"V. c #684B09",
"C. c #321C40",
"Z. c #2A2948",
"A. c #3D2E41",
"S. c #382943",
"D. c #3E3241",
"F. c #363D41",
"G. c #3C3B43",
"H. c #3A3746",
"J. c #2F2F59",
"K. c #422C42",
"L. c #442B4A",
"P. c #492A44",
"I. c #552B47",
"U. c #443642",
"Y. c #4A3543",
"T. c #453943",
"R. c #4A3B45",
"E. c #44354A",
"W. c #4A354A",
"Q. c #453A49",
"!. c #4B3D4A",
"~. c #523C45",
"^. c #533D4A",
"/. c #543649",
"(. c #4B3A54",
"). c #573F52",
"_. c #4B3C63",
"`. c #3C4143",
"'. c #384849",
"]. c #395744",
"[. c #274F4D",
"{. c #1A704D",
"}. c #256B48",
"|. c #3A6549",
" X c #247848",
".X c #287B56",
"XX c #2C7050",
"oX c #454244",
"OX c #4B4344",
"+X c #45434B",
"@X c #4D414A",
"#X c #444B4C",
"$X c #4C4A4D",
"%X c #4A4943",
"&X c #52444C",
"*X c #534A4D",
"=X c #544846",
"-X c #46574B",
";X c #4F4250",
":X c #494954",
">X c #534552",
",X c #544953",
"<X c #584858",
"1X c #4B5353",
"2X c #4D5B5C",
"3X c #555759",
"4X c #456B55",
"5X c #457B4A",
"6X c #656643",
"7X c #75724A",
"8X c #797054",
"9X c #5D4A61",
"0X c #596562",
"qX c #6E6C6C",
"wX c #85772B",
"eX c #806F39",
"rX c #837943",
"tX c #847D59",
"yX c #0E822D",
"uX c #1B975A",
"iX c #17864E",
"pX c #288854",
"aX c #23985A",
"sX c #2D884F",
"dX c #19A457",
"fX c #16B058",
"gX c #24A35C",
"hX c #1F9F64",
"jX c #2A9965",
"kX c #369867",
"lX c #328A62",
"zX c #16BA6C",
"xX c #2DA967",
"cX c #31A46D",
"vX c #26BB77",
"bX c #2FAD71",
"nX c #468057",
"mX c #658B76",
"MX c #1AC471",
"NX c #24C07F",
"BX c #94934B",
"VX c #B3AB5F",
"CX c #8A8466",
"ZX c #9FA37E",
"AX c #B6A96A",
"SX c #A4935F",
"DX c #C3BD65",
"FX c #C0C56B",
"GX c #353C80",
"HX c #3F4A8A",
"JX c #43538E",
"KX c #9E9886",
/* pixels */
">X<X9X3X<X9X,X(.U S ^ S ) S ^ ) D.S S N A U.K.S S _ Y.Y.Y.R.U._ !.!.R.T.U.S S D.S S S S S S S S E.A.S S S A.D.U.U.T.T.T.T._ U _ ",
"E.Q.(.W.W.!.(.!.S U ^ S S ^ ^ C U.S S E.E.E._ A S ' R.U.U.R.R._ _ E.E.E.U.A.D.A.U.E.E.U.D.E.U.U.A A.E.E.E.D.A.A.U._ _ T.T.T._ U ",
"D.S S S A.D.U.R.R.R.R.R.R.R.R.R.E._ U.!.&XR.S S ^ Y.' _ Y.R.Y.S N C U U.U.U.E.U.R.T.!.R.T.R.E.T.S E.!.;XU.S S S _ _ _ T.R.T._ S ",
"U.S U E.U.U.S E.R.R.R.R.R.R.R.T._ R.@X&X!.' _ U.S _ _ Y.Y.R.' C N S _ _ T.T.R.R.U.U.U.U.U.T.T.T.T.!.!.E.E.U K._ U U.T.R.T._ U C ",
"U.U.U.R.!.U.T.!.U U U U U U U U T.R.OXT._ _ U.' C ' R.R.Y._ ^ C T.U.U.' ' T.' U._ _ _ _ _ ' _ ' @X!.U.D.D._ U S _ U.R.R._ S S U ",
"U.U.U _ T.T.!.>X@X@X@X@X!.@X@X@XR.R.U.U _ R.Y._ C Y.&XR.^ C ^ _ T.U.' T.R.!.OX^.@X!.@XOX!.@X!.!.R.U.U ) T.E._ V U.R.R.' S V K _ ",
"_ U._ _ U.R.@X@X,X>X>X,X>X,X,X>XR.' U ) _ R.' _ _ R.~.U.C C ^ _ _ ) ) T.!.&X&X&X&X&X&X=X&X&X&X&XU._ _ T.R.R._ S R.T._ S S S _ T.",
"_ R.@XT.T.@XR.' D.T T G.U T D.T U.) U ' R.' _ ' !.R._ B C ^ _ _ T.' R.] !.OX' _ ' ' U.` ' ' ' U._ U.T.T.' ' U.R.@X_ V N K U.R.T.",
"R.T.T.R.&X&X' C Z U.^ C C B D L.S ) T.R.' _ ] OX^._ N C ' U.T.U.U.T.R.&X@X_ C V S S B N A E.A.A ' U.R.U._ ' ' !.S V V S _ T.T.' ",
"U.T.R.@X!.T.U._ U.E._ ` &X^.A.S.U K K _ _ ' R.R.U V V U U.U.' T.U.!.&X@XT._ U U ' _ U.R.Q.A.S A.R.' _ ' R.!.R.U.V S _ _ _ U.' E.",
"_ R.!.!.T.U U.R.!.!.T.OX,X&XE.Z R.T._ _ ' &XR._ V V S ' R.U.U.T.@X@X!.T._ T.E.' U T.@X>X!.S D.Q.R.U.' R.!.R.U V V _ R.R._ _ U.!.",
"R.@X@XR._ U T.@XU.R.=XOX] U A.A.T.R.T.R.!.!.' N C ^ U.U._ _ U.T.&XR._ _ ' R.R._ U @X@XT.S U U.D.S U.!.!.E._ N N S ' R.R.U.' R.&X",
"@X@XT.U._ _ T.T.T @X%X[ e 8 A Q.' U.U.R.R._ C C _ U.T.U._ U.T.@X@XU.U _ T.T.T.T.OXOXT.V w A D.U.S T.!.!.A.A S K._ U.' T.R.!.@X@X",
"&X!.T._ T.R.R.T.$XoXP x 0 0 I G.>X(.@X!._ A A U.' U.T._ T.R.@X@XU._ _ T.T._ T.R.%X' u e N J G.@X>X(.!.A.A A U.U.T._ _ U.!.@X!.R.",
"T.T._ _ T.!.@X!.%XP v z 0 z I V >X;XR.E.S S U U.U.T._ _ T.@X@XT._ U.T.T.U.T.R.@X' J u u J V G.$X;X(.A.S S A.S E.U.U.' R.@X!.T._ ",
"U U U.T.R.!.@X&XT J P v 0 0 m e N N N N C E.E.U.T.T.T.T.!.@XT.V _ T.T._ U.R.@X!.J P K V w e N e A N N Z D.U.E.U.U.R.!.@X!.R.U C ",
"T T.!.W.(.>X@XT =.+ 6.O.{ O u 3 3 n N N S D.E.U.' ) OX*Xr.e.q.G S K U ' OX@X' V  .d.7.; j F n 3 N y C ^ U.R.R.Y.( &X1XF.H I B Y.",
"U T.Q.Q.R.oXr.c a + 9.j.:.2.' K.U.U.E.U.U.U.E.U._ ' %XoXq.y.].i._ _ T.R.oXT P z  .7.9.<.c T U U.S ^ _ U.` R._ ^ &X@X`.H '.:XU ^ ",
"T.!.!.!.x.r.2.:.s ; 9.9.<.r.R./.!.T.!.T.R.T.T.E.!.+XoXG >.i.g.9.K.Y.R.x.w.c -.=.X ..9.w.r.' Y.^.Y.R.R.Y.T.U.R.R.@X`.H 4 '.2XT m ",
"!.!.;X!.T 1.:.5.c p l <.l [ ` ^ _ U.U.U.U.U.T.T.@XoXT h 5 4.f.%.A.W.R.J h 2.:.X.> : 1.P ] ' ^ Y._ R.R.U.U U.!.,X_ I m 4 Y +XI S ",
"!.!.!.U.L s :.O.z 0 k x v ] _ ` U.U.] U.T.R.R.R.!.I J G a $.} { S.W.U.e p 2.2.+ p z v ' OX] _ ~.T.T.T.T.T.T.T.T.B B S 3 n S B ~ ",
"Q.U.D.U u p a 2.0 0 r.oXOX=X@X&X=X&X@X&X@X@X!.OXD.N F Y h s =.; K.W.U.e 9 q.q.O C ' c.@X$X@X!.,X,X*X@X;X,X$XT.C ~ ~ / ~ ^ K.~ P.",
"D.U S K.A u z q.J I oX@X@X&X@XOX&X@X&X!.~.R.!.R.^ S _ _ K ' [ K A.E.T.A m T Y J U @X&X!.@X@X@X$X;X@X@X@X@X@XT.U K.S U.K.K.W.^ A.",
"T T.U.W.U.S T T #X`.oXD.D.T.T T U.' ' ' ' ' ' ' _ R.!._ _ ~.&X^ S U.E.D.S D.T.@XE.(.!.D.T.r.I I m N V e q n I @XH.D.T.E.E.H.I D.",
"H.D._ ` ` ` ' ' +XT c.[ ] R.[ c.R.U.U.U.U._ _ U Y.T.U.U.@X,X&XU I E._ Y.` U.OXR.*X*XD.D.(.H.U U C u y 8 9 g |.5X1X`.`.T U Q.K.^ ",
"H.G.E.!.~.!.R.T.Z.m =X*XU.W.!.T.U.' ' U._ _ U _ T._ _ @X!.R._ U.D.U.U./.` _ T.e x ,X!.U.Q.E.T.' / ` I 0.}.cXNXMX0X#X#X`.U.T.A.C ",
"D.T.!.^.&X~.T.G.Z.n ] OXE.(.E.I R.T.R.U.' U.U.' T.U.R.@XR.S S ' Z D.R.R.' R.oXq t c.@X,X;XU.' ' ^.&XT q.|.lXlXiX$XH.oXT.U.T.^ D ",
"G.T.!.R.R.@XoXoXM w & t !.9XQ.T.U._ _ _ U _ U S ' !.@XT._ U.' U m E.Y.R._ @X,Xf % & u *X$XU K P T U K S _ ) i t e e G.oXT.T.U.S ",
"Q.Q.Y.Y.R.@X$X1Xm k v.v.) R.@X%XR.R.R.R.R.R.R.R.!.@XR._ _ T.T._ S !.~.Y.R.3X3Xr x =X[ _ @XT.] %XT.' R.OXR.I i i y u OX@XT.!.D.S ",
"T.Q.R.R.T.@X1X0Xf x CXCXi y %X%X,X,X,X,X,X,X,X,X>XR._ T.R.T.T.T.S E.Y.!.@X3X1X4 ] KXqXN T.,X*X*X,X<X,X$X$X>XR.S U V U.U.U.T.D.A ",
"U.E.!.R.T.`.#X#Xe k 8X8Xx N @X@XR.R.T.R.R.R.R.R.R._ U T.!.T.U.T.D !.R.R.R.#X#Xd x qX<Xn A T.T.R.` R.T.U T.).I.W _ i _ _ U T.D.A ",
"H.!.!.!.' I H G I z x i ^ L.S.S.U S U S U S U U S ' U._ U.R.T.U S >X>XT.V M F.6 I U A D.H.n w y 2 w q m M A D.A.~.' &X!.T.T.D.D.",
"T.R.@XR.T.U _ _ ( ( U.T.U D.H.Q.S S ~ D V z K S I.R.I R.^.J C ` I G.+XT J J K K P ).>Xm N L.Z 7 e S.Z.n & J I f h r.<.<.w.1.L V ",
"R.T.U._ _ _ U.T.@XoXT.R.G.Q.+X!.'.r 2 m m r p B <X+XT @X$Xq.d S T.U._ _ ' Y.Y.] c.c.x.p t   . 9 q q q A r o & H.=.2.; = -.c K I ",
"T._ U U _ U.T._ `.r.I U Q.@X!.R.7 3.N.n.o q.8Xm.P r.r.x.0.&.u.f Y.^ / ` ` /.~.~.b.7XN.> b eXm.& 3.B.z.8 c.B.k.w 4.j.:.O l x T U ",
"C S _ T.T.T.U.U.F.I K ' R.!.] ) & m.VXBX# N.DXwXo y.-XP 5 }.4Xw.^ ` R.` ] =X=X] =XVXSXh c.AXBX& B.DXB.* 7XFXB.0  .d.} X s J I D.",
"C U R.R.T.T.T.R.!.!.~.^.~.] ) 8 i R wXM.# c.rXV.> 1.x.c O ].].) I T.oXG.@X3X3Xq.S N.m.m T B.m.4 R wXl.. v.wXl.0  .h.4.> z I _ _ ",
"U T.R.T.T.T.R.@X>X^.)./._ J h 6 F % $ - 6 5 * 1 , O 5 k f G L ( G.G.oXF.#XqX0Xg 3 * % q n 1 X @ 9 > > Z.j $ > M h.5Xi.d U _ U.T.",
"T.T._ T.T.!.T.T.W.U.~.' 6 $.}. X{..X}.{.{.*.{ c l $.&.t.[ ) K R.R._ U.R.oX1X1Xd D.~ S J T x 0..X{.{.{.}.$.;.>.d %.u.G V / U.U.] ",
"T._ _ T.&X&XU.C E.V T.Y 7 &.kXvXzXfXvXvXdXs.p.;.o XXlXu.C ' D.Q.Y./ ~.&XK u I e I S.P.) z m |.bXMXNXzXpXp.#.X.$ @ g m K.W.W.T.T ",
"_ T.@X&X!.T.U _ y l ..O.> 9 i.u.[.`.c.y.:.7.#.+.g q.r.G J ] ' ` U.(.@XQ.^ U._ _ E.E.Q.G.I f F r.i.x.z...X.i.h 0 U S U _ U.T.R.T.",
"T.!.@X!.R._ U._ e s :.2.>.e 4 5 @ 6 p k + { O.#.d L `.T T T.` /.).W.E.U.A _ T.' _ _ @X@XoXV r m 5 > : ; 4.8.>.p S U U.T.T.T.T.R.",
"@X!.R.T.U._ T.T.J a 5.X.h V r h a - & $ ..=.o.X.J K T.R.R.~.W.).<X!.U S U.U.' T.) OX*Xx.u 8 t x g 5 ; =.;.;.a p ) _ T.T.T._ T.!.",
"&XR.T._ _ T._ T.d a 8.9.; % * 1 : - E < - 2.2.h S ^ _ Y.Y.W.W.).(.E.U E.R.U.' T.R.@XOXt & b k * $ l , o a 0.L U.T.T._ _ _ T.!.&X",
"@XR.U.U T.T.T._ r a 6.#.= k.eXB.+ k.CX6X# s q.T ~.^.R.R.&X!.!.(.U.S A.E.R.U.T.@X+XT.V & b.CXM.1 l.tXm.  F F.S./.R._ _ U.R.@X@XR.",
"T.T._ T.T.T.T._ V >.{ O.X l.VXBXO b.KXtX$ p L H.OX=X=XOX$X1X$XI A.S S U.U.T.R.@XY Y p & 6XKXmX< N.ZX8X  D.H.D P.T.T.U.R.&X@XT.S ",
"_ U._ T.T.R.T.T.B 1.O.O.X < m.k.+ s 6Xb.$ s L F x z L c d -X4X7 Z A S U R.!.R.U.>.s <.o -.b.z.$ < v.( 8 F.'.@X^.R.!.@X&X!.T.U C ",
"_ U _ U.T.R.R.R.i l :.8.=.c i & 0.; # $ $ a Y I v - h d O 4XmX0.n Z S E.@X>XT.y { +.9.= O s a c a 9 e F.].-X-Xc.@X*X,X@X_ C C U ",
"T.^ _ R.Y.R.] _ u d 2.8.| } { 5.5.:.a z Q p %.: k ,.2.1.$. XkX{ D D Y.c.y.u.>...= 6.6.| } X.} O.X.5.< < :.i.2.c $.t.L 5 d.g.e.K.",
"U.^ E.R.' U.~.] H 5 8.8.%.| %.6...:.{ 5 p $.%.:.k >.>.1.=.s.sXX.A ~ / ' y.0.,...X.} | %.4.O.} %.| 7... .$.%.;.; >.q.c ; d. X0.D.",
"L.A.Y.W._ _ R.@Xi   * ! < < : < < < =.1.v =.} : z >.h 3.-.*.f.> N ^ ^ C 1.2.,.s E ! < : b < , < +.z.3.: :.9.o.* k ! Q : 5.j.g S ",
"S.L.E.W.H.Q.@X@Xi k l s <.b & ! %.8.8.:., =.p...z 0.L ! -.$.8.< N ^ ) u d 0.2.: * < >.-.l b k f { 9.o.1 o.7.:.+.=.c s X X.5.s ^ ",
"L.L.E.!.W.$X%XT }.aXhXdXxXpX$.e.zXhXiXf.+ %.sXa.u e.q.! w.$.4.< m U._ 8 p 0.y.p *.iXhXhXhXjXjXuXuXsXf.$.4. XaXgXaXaXsXs.p.| a T ",
"L.L.L.!.oXoXx.c }.pXjXuXbX.X7 I vXjXpXg., ,..X}.V `.r.) 1.4.8.< F ) ) u d 0.q.s a.aXcXhXkXkXjXjXuX.Xi.s 9..XjXbXxXxXkXiXp.6.h U.",
"L.K.U.U.P v 1.: s s s s c z 2 ~ 0.0.,.v Q c t.K ^ `.x.) 1.%.%.o.F U ' x G t.q.z t F H g c z d G 6 e i i x h 5 5 ,.5 0.$.:.3.) I.",
"P.~ U.' z k l > -.- 3.! i V m M ( ` 9 k c.c d / / G.T ) 1.%.%.:.L ' [ K q.t.r.J Q y 4 d I t 8 V m C B u h g j c x r d =.3.3.J Z ",
"S.A U T.w.o.+.#.k +.BXBXQ 3 K.S T.U.Y.' Y.Y.U.R.E.G.Y >.;.;.;.9.I _ !.] e.r.r.z K >X_.D.T Q.H.A.I./ ^ g h.xXgXfXfXdXpX Xu.H A.L.",
"T.A.U.T.w.9.O.#.k < 7X7XQ N U.] Y.R.R.T.Y.T.Y.Y.W.T.] 2.<...:.3.Y _ R.' L t.y.k , (.(.U.[ ^.).Y.W.E.Q.0. XxXxXuXuXuX.X}.[.U P.P.",
"Q.A.U.' c =.| @.b % x C B ^ Y.) U.` Y.Y.' U.Y.U.I.~.=Xc.l > ..<.F.G.' T e.].].p # n A.oXv./ K./.Q.D.' V G 0.g 4 h J J I _ U./ ~ ",
"U A W.Y.f { p.@.l z 3 C.L.!.R.T.R.R.R.R.R.R.R.R./.!.c.w.<.......Y T ' r.].4X].a H Z.J.J.OXW.P./.G._ I.Y.Y.Y.( W W W ( / W.T.D.m ",
"U S !.R.f $.h.sXj T S.(.9X).&X=X>X&X&X&X>X&X>X&X;X+Xr.2.:.4.4.4.Y T ' r.].4X|.a J.HXHXZ.H 3X<X=X$X&X<X&X:X:XF.H.A A A.G.!.Q.I I ",
"A.^ /.!.z 5 u.h.z u N B W.).^.@XR.!.^.!.~.!.~.!.+X`.q.;.4.5.5.8.L ' ] x.].4X|.5 J.HXHX7 q H.+XI F.T Y.' `.'.G.U.E.K.U.U.U.Y.^ B ",
"S / Y.!.T d =.4.F.% z.E i ~ _ ) / _ _ _ _ U.U._ T.T L :.:.5.5.5.T ' ] w.t.|.]...n J.J.M n m Z u J V C 2 r e.G 0 J L K T U ^ / / "
};
