/* XPM */
static char *_712b72422bf416eec4e3ad21e07c937aarUhMiBhkbmbhoq[] = {
/* columns rows colors chars-per-pixel */
"64 63 256 2 ",
"   c #152E1A",
".  c #2E311B",
"X  c #1B1829",
"o  c #1C1C33",
"O  c #1B1A3B",
"+  c #110F30",
"@  c #26182A",
"#  c #32142D",
"$  c #231C35",
"%  c #2A1D34",
"&  c #231C3C",
"*  c #28173C",
"=  c #351938",
"-  c #2D0F35",
";  c #1B252C",
":  c #182C29",
">  c #16332A",
",  c #1B2435",
"<  c #152B33",
"1  c #15233C",
"2  c #1C233B",
"3  c #142D3C",
"4  c #1C2B3B",
"5  c #1A2834",
"6  c #1B3234",
"7  c #163338",
"8  c #0C3031",
"9  c #24232C",
"0  c #27292B",
"q  c #26332C",
"w  c #242333",
"e  c #2C2534",
"r  c #242B34",
"t  c #2C2A34",
"y  c #25233C",
"u  c #2B243B",
"i  c #242B3C",
"p  c #2C2A3C",
"a  c #342335",
"s  c #312B35",
"d  c #31253B",
"f  c #332C3C",
"g  c #3A2B3E",
"h  c #3C2538",
"j  c #24323A",
"k  c #2C343C",
"l  c #283838",
"z  c #343235",
"x  c #3A3434",
"c  c #34313D",
"v  c #3A333D",
"b  c #343B3B",
"n  c #3C393E",
"m  c #3B3D35",
"M  c #342A2D",
"N  c #121A1D",
"B  c #4C1A3A",
"V  c #442B3A",
"C  c #433B3B",
"Z  c #443839",
"A  c #53373E",
"S  c #642F3F",
"D  c #37433A",
"F  c #2C423C",
"G  c #48453B",
"H  c #1A1948",
"J  c #150D56",
"K  c #1C1455",
"L  c #1D125B",
"P  c #191857",
"I  c #231D44",
"U  c #2B1B43",
"Y  c #241D4B",
"T  c #291C4C",
"R  c #291649",
"E  c #3B1D4C",
"W  c #341846",
"Q  c #260C58",
"!  c #241C52",
"~  c #23145C",
"^  c #281957",
"/  c #331C55",
"(  c #381A57",
")  c #290B51",
"_  c #1D2342",
"`  c #1B2C43",
"'  c #1A264A",
"]  c #163747",
"[  c #0C2F4A",
"{  c #232344",
"}  c #2B2445",
"|  c #2C2B42",
" . c #25244B",
".. c #2B244A",
"X. c #2D2B4A",
"o. c #262A45",
"O. c #332545",
"+. c #3B2543",
"@. c #332C42",
"#. c #3A2C43",
"$. c #33244C",
"%. c #3B224A",
"&. c #342B4B",
"*. c #3C2A4B",
"=. c #233243",
"-. c #293647",
";. c #353242",
":. c #3C3544",
">. c #343B45",
",. c #3D3944",
"<. c #36334A",
"1. c #3C344A",
"2. c #343B4C",
"3. c #3D3B4A",
"4. c #242252",
"5. c #292655",
"6. c #352552",
"7. c #3B2354",
"8. c #332C53",
"9. c #3C2C53",
"0. c #38255B",
"q. c #2A3B56",
"w. c #3C3254",
"e. c #3D3A51",
"r. c #343654",
"t. c #160B65",
"y. c #1A1463",
"u. c #111870",
"i. c #2C0E63",
"p. c #260B68",
"a. c #281466",
"s. c #381565",
"d. c #381177",
"f. c #262566",
"g. c #3A2367",
"h. c #3F3162",
"j. c #003569",
"k. c #421C46",
"l. c #471B58",
"z. c #561753",
"x. c #422D4B",
"c. c #462947",
"v. c #532C48",
"b. c #423445",
"n. c #4B3445",
"m. c #423A45",
"M. c #4B3C44",
"N. c #42364A",
"B. c #423A49",
"V. c #403C4B",
"C. c #453D4A",
"Z. c #463D4D",
"A. c #433C4B",
"S. c #4A3C4C",
"D. c #49354A",
"F. c #533949",
"G. c #452857",
"H. c #443552",
"J. c #443C52",
"K. c #4A3C53",
"L. c #4C3C5A",
"P. c #463558",
"I. c #543C53",
"U. c #523655",
"Y. c #59245A",
"T. c #471966",
"R. c #571968",
"E. c #451975",
"W. c #561675",
"Q. c #55097C",
"!. c #651475",
"~. c #72147D",
"^. c #482868",
"/. c #562469",
"(. c #483763",
"). c #543967",
"_. c #4D2D74",
"`. c #69267A",
"'. c #6A2C73",
"]. c #623D4F",
"[. c #1C464A",
"{. c #174956",
"}. c #065753",
"|. c #124B4E",
" X c #274248",
".X c #3C4144",
"XX c #384348",
"oX c #234958",
"OX c #3F4655",
"+X c #235458",
"@X c #3C5554",
"#X c #17546D",
"$X c #34586A",
"%X c #2B586A",
"&X c #0B7268",
"*X c #326878",
"=X c #2C6E72",
"-X c #434145",
";X c #4B4545",
":X c #44414B",
">X c #4A424D",
",X c #4C494E",
"<X c #4C4845",
"1X c #53464A",
"2X c #464252",
"3X c #4B4353",
"4X c #4C4A54",
"5X c #4C445A",
"6X c #4E4D5A",
"7X c #464857",
"8X c #514855",
"9X c #554659",
"0X c #515355",
"qX c #67445A",
"wX c #4F4C6A",
"eX c #54536B",
"rX c #0F8F77",
"tX c #571789",
"yX c #4D108C",
"uX c #64168A",
"iX c #75198A",
"pX c #701596",
"aX c #6C298C",
"sX c #7E13A6",
"dX c #5D2389",
"fX c #3A5E80",
"gX c #2F7B86",
"hX c #851B9B",
"jX c #97189C",
"kX c #862B99",
"lX c #870CA3",
"zX c #8917A6",
"xX c #9319A8",
"cX c #8B16B2",
"vX c #9518B2",
"bX c #A511B4",
"nX c #8021A3",
"mX c #9C18C7",
"MX c #A315D3",
"NX c #AB12C7",
"BX c #B008E0",
"VX c #2D968B",
"CX c #399795",
"ZX c #328C89",
"AX c #31AD9A",
"SX c #2198A0",
"DX c #29B2A4",
"FX c #13A297",
"GX c #448D91",
"HX c #50ADAC",
"JX c #62B2BD",
"KX c #38C5B3",
"LX c #48C3B1",
"PX c #39D5C0",
"IX c #4AD5D3",
"UX c #4CE2D6",
/* pixels */
"2X6X0X6X6X6X4X.X;.;.;.;.;.;.;.;.f #.f d f #.:.#.f :.N.1.:.N.:.:.1.K.5XN.f f #.:.;.;.;.;.;.@.;.;.;.;.f p f f c ;.:.A.A.A.B.:.#.v ",
"3.3.:X3.3.:X:XOX@.;.;.;.;.f #.;.A.:.#.;.B.B.f e f #.N.B.:.:.N.:.;.A.A.:.#.:.#.f f @.p f f z f f ;.,.3.3.:.;.f p A.:.:.B.B.B.:.:.",
";.p c ;.c ;.:.3.A.3.A..X.XA.A.3.A.1.B.K.K.A.g f f :.:.:.:.N.:.f d f v :.B.N.N.;.V.:X3.:Xe.V.:XV.;.3.2X2X<.c f c :.;.B.m.A.A.:.f ",
":.c ;.,.,.;.;.,.A.3.3.A.V.3.3.A.:.A.S.4XA.,.:.m.f :.:.A.A.N.:.f f g :.:.:.A.A.m.,.3.3.,.3.,.3.3.V.:XZ.A.,.c ;.:.v :.B.A.A.,.g f ",
",.:.:.A.A.,.,.Z.c n ;.c :.c :.b m.A.>XA.:.v m.C.d :.J.A.N.;.#.f ,.m.C.m.:.#.:.m.:.,.>.:.,.:.:.:.7XZ.,.;.,.;.;.;.;.N.S.A.:.f g f ",
",.:.:.:.:.A.K.3X:X:X:X:X:X:X:X:X>XA.b.z v B.C g e N.3XA.g d f #.n n.m.C.m.C C.3X-X:X-X:X-X:X-X-XV.,.:.;.3.3.;.f A.A.m.v s s g A.",
":.m.:.:.:.Z.>X3X4X4X4X,X4X4X4X4XS.m.z f b.m.:.f #.A.S.:.s d v b.v v v m.C.A.>X,X4X4X4X4X4X6X4X6X<.,.;.3.A.3.;.@.C.m.g f f f :.A.",
":.Z.Z.A.A.Z.A.:.n n n v n v n v C v v C m.n v C A.A.:.d d f ;.:.C.:.C C.>Xm.C n :.n n n n n v :.:.,.1.,.,.:.3.3.A.;.f s ;.,.:.:.",
"C.b.n C.3X,Xn a @.@.O.O.f d @.O.g #.A.K.N.b.N.K.:Xg e f :.:.B.A.m.B.A.3X3X:.s s O.O.O.f @.O.#.@.x n ,.m.C n M.>Xf a s g B.A.B.;.",
"n m.m.A.C.m.b.n 1.:.:.A.Z.J.N.f g :.b.b.#.b.S.8X;.f s v B.:.B.A.v A.3XS.b.;.:.B.:.:.B.J.N.f f :.A.b.n C m.C.,.v s g :.:.:.:.B.B.",
"v m.3X>Xn g b.:XA.A.A.>X3X3Xm.f A.S.A.N.A.S.S.b.s s g :.B.b.B.:.:.3X3XA.v B.A.b.:.b.C.8XS.f z A.m.B.b.m.A.m.v s f :.A.A.:.g :.C.",
"m.C.>XM.v z :.;XC m.-XC.C z z z A.A.N.A.3XK.:.p d g :.m.B.;.:.B.3X3Xm.;.:.A.A.;.n -X>Xm.v z z ,.g :.A.A.A.v s e c :.A.A.m.B.A.3X",
"1XC.m.n b.m.C :.-X:X:Xv e 0 t x ;.:.:.Z.Z.:.f e ;.:.B.B.B.:.A.A.4XN.v :.A.:.:.:.,X>Xn t 0 t z v :.A.S.A.g s f f B.:.:.B.A.Z.S.3X",
"3Xm.v g m.C.m.:.4X2X.Xc e w f ,.3XS.3XZ.;.e e ;.:.B.:.v :.Z.3X3X:.g :.A.A.f :.3X6Xc w e t s ;.4X8X3XA.f s d g A.B.B.;.:.A.>XZ.A.",
"m.b.n b.m.C.C.A.7XA.;.e u p c @.7X7X2X,.f e f 3.:.:.:.:.A.>X:XA.g :.A.A.:.:.A.8X,.w o w p @.1.7X3XA.g p s ;.B.A.b.:.:.Z.:XZ.3.v ",
"s z m.m.m.m.>X4X3.| w o y p u i f f p w e f :.:.B.B.:.B.A.3XA.f :.A.m.:.:.Z.3XA.p p u w w p ;.| d d e e O.:.N.1.:.m.Z.3X3XA.g f ",
":.A.m.n C ,X:X>.X.H J J y.5.p 0 e e a f #.:.N.1.m.m.S.5XK.*.*.G.#.;.<.3.2X7X,.r 4.y.t.a...t p X.f s f f B.B.m.B.;.n G G 7.( E c.",
"N.N.m.m.:X7Xe.| o.H J J K 5.;.m.:.;.;.b.1.A.N.A.n A.3XK.H.9.9.7.c ,.:X2X2X2.p w H J t.L ..z f @.#.:.:.B.B.:.:.:.7X-XC ;.0.g.7.x.",
":.B.A.>X2Xe.$.I _ H H P 5.8.3.:XN.A.A.N.N.A.B.B.-X>XJ.N.*.6.0.0.f :.:X2X<.y O { { H K ^ 1.,.n 1.,.A.A.A.B.:.A.K.7X,.s % / s.G.x.",
"A.A.>X3X<.} Y ! y y Y ..8.w.1.c :.B.B.B.:.:.:.m.4X>X1.| U R ^ / t v 1.<.U O H 4.y  .4.<.3.C M.N.B.b.B.:.;.A.>X4X3.z 9 $ ! / 6.#.",
"A.A.C.A.| & H 4.y y { &.e.Z.A.:.b.A.C.C.A.A.A.>X-X:.f u & R R 6.s :.,.u & I  .Y $ p 1.3.C n C b.B.:.:.:.A.A.A.m.t e w U ! ^ $.@.",
"Z.m.v #.t & { 6.o p ;.-X>X3X3X5X,X3X1X3X>X>X>X>Xk p p @.@.$...%.z A.3.| y o.{ O e c 2X4X;X>XS.3X3X3X4X8X8X3Xm.g e f f &.6.X.@.c ",
"N.:.n z t p @.<.| ;.-XG <X;XK.3X3X,XC.>X:X>X>XC.f ;.@.:.<.:.:.1.f :.3.@.p ;.<.p ,.:X,X<X;X1X8XK.>XS.K.S.K.A.:.;.z :.:.<.<.<.;.;.",
"#.:.m.n z z ;.,.7X:XG Z m C N.D.B.C n :.C b.C n 2.e.3.,.,.-X-XC.f ;.,.c p c ,.OXV.-XC Z C b.N.*.s p t e e e g ,.m.b.,.;.,.;.;.p ",
"c ;.,.J.A.:.:.M.A.:.m.Z M.1Xv Z :.:.B.:.:.:.:.:.V.3.,.;.Z.4X2X;.g N.D.:.@.:..X,.qX.XF n.v.,. Xc r q : : t x.'.kX3XN.b.x ,.:X;.@.",
";.,.3.Z.A.N.B.N.e t 7X4Xb n ,.D B.B.B.:.:.v g v A.,.:.2X:X3.,.;.g N.S.B.:.>.c k c @X@Xb n.,.2.2.C C.b.E R.sXMXBXeXK.>Xm.m.m.f @.",
":.A.V.A.A.K.J.D.j z S.S.A.XX.X3.S.A.B.B.B.:.:.:.,.:.V.7XV.;.f ,.g #.N.:.3.3.,.t r ,.,X7XA.n.:.XXw.J.A.*.^.aXiXhXK.b.D.n ,.,.f | ",
":.A.C.A.S.5XL.L.8 5 # # K.4Xz n.;.;.v g #.:.:.:.,.:X2XA.,.;.,.c g #.B.#.N.K.A.@.h X k 9XI.v.m..Xw.w.b q D q 0 0 = e b.m.C.:X;.@.",
";.A.m.M.:X5X).(.4 3 +X+XF ;XF.S.A.m.A.A.A.A.A.A.J.2X3.;.:.3.3.c :.m.A.N.K.K.D.} =.+X+X:.F.7X,.n.v.n.n.C.A.v e @ % d M.C.-XA.c @.",
"1.m.M.M.M.K.(.(.h |.DXKX|.a qX5X6X9X6X9X9X8X8X8X6XA.;.:.3.,.:.A.s :.K.K.L.L.D.W }.LXAX7 N.0X:X].;X8X8X1XI.9XU.W O.g b.n n m.;.@.",
"N.N.C.M.b.N.G.^.= 3 VXVX8 $ I.V.S.S.A.A.A.A.b.m.:X,.;.,.A.3.,.<.e :.Z.D.D.P.G.%.[ CX=X< p A.z b. XXX,.>.3.;X-Xz #.g v z c :.f <.",
"J.A.M.M.n.+.7.g.%.%.&.| | ;.p #.f f c v c ;.:.;.f ,.3.,.,.V.,.f n >X3X*.+.+.%.E 9.e.r.<.#.s 0 > u * & y y i j =.K.N.>X-Xm.A.f @.",
":.A.3X:X:.v g :.V x x x x v b.n.c r e V e -.+.v.H.w.e.D m m.-.l +.C.;Xb.9.P.w.H.n.F.F.q : p w ` : p a X 7 ;.| % $./ &.;. .o.@.8.",
"m.B.:.:.v ;.:.B.1.3.3.,.m.N.K.K.v.h @ # V f u G.qXL.J.G 1Xx.O.p <.m.n x A.1.,.M.U.P.N.d % & + U y @ # h w X @ h R ~ I w O _ p 6.",
":.#.f g :.B.B.:.e.e.H.P.J.K.2X2Xg u $X+X$ [ gX#Xx.D.M.Z V l.E h -.>.D D C.S.C G $XgX*XW W *X%X- 5.*X{.I q.=X|.X Q i...i { y z 9.",
"f f g :.A.A.B.B.A.B.1.H.L.2X2.j ] oXIXDXP #XUXSX@ B.G Z W T.^.U.<.>.n m.I.I.F.F.eXPXKX9.(.KXDXp fXIXFX' eXUXFX{ Q i.^ u Y y M &.",
"s g ,.Z.A.A.A.A.M.F.A M.Z.3.j ; 8 -.ZX#X- r.VX}.N c ,.M & g.^.D.:.B.b.F.).'.).Y. XrX&X, ] rX&X@ ] VX}.o e.ZX}.* / d.6.u  .u M #.",
"v :.m.A.B.A.A.3XF.1X1X-X,.f +.W = % ` 1 k.= 8   ; y U $ { 8.8.#.D.n.n.U.'.aX'.^.< ; 0 N < 7 o k.w d @ 9 ; : N 9 ^._.9.s &.;.n L.",
"A.A.1.m.A.A.A.Z.J.V..Xb f l.`.iX~.W.W.!.W.W o s s s.s.G.:.3.D.M.H.b.m.D.^.(.(.E } = V M r O.z.~.dX~.!.T.H & y , $.0.u 0 @.;.x H.",
"m.:.:.Z.3X3X,.f 8.<.j : } R.hXNXbXMXNXNXsXyXi.s.# E.dX/.M x b.n.<.:.-X3.o.{ X.;.G.| s V v 5.R.bXBXMXNXlXQ.L f.R % E a z J.Z.Z H.",
";.A.3X4XS.:.v :.t { P f._ 5 1.G.n.f k ;.%.W H j.& %.c.*.<.XX2.J.3.J.V.;.p c c ,.;.-.3.U.1.3 3 z.G.q.] $.i.P 3 0 d f g :.A.A.A.B.",
"N.A.>XA.N.:.:.:.q o.y.5.O.a % = % d w a +.R P f.w O.*.*.1.2.v n.J.e.<.c f ;.,.3.S.m.N.8XJ.=.y = k.9 ; $.s.~ 4.r e f :.A.A.m.B.B.",
"S.3XA.:.v B.A.B.F [ ~ ) W a @ T p f @ $ X.I T ( i ;.b.b.3.n C F.2X1.;.c ,.,.,.,.A A 3X:X<.u & X.V # 9 X.^ J T 2 g ;.A.m.B.A.m.Z.",
"3X>X:.;.g :.N.B.> ' ~ ~ * , < [ w 2 =.3 1 H R W f #.#.C n m G 1Xe.:.;.:.3.,.:.n A ;X>Xw N 3 ` 1 X 6 < O R R ..A.m.,.B.:.:.A.Z.3X",
"3Xm.:.:.,.:.:.A.6 ' K ^ { [.=XgXu -.GX*X1 { } r.S.S.1X3X>XI.,X4X;.@.;.,.3.,.,.:X>XD r X  XZX=Xo q.CX%XH $. .r A Z.:.:.,.Z.K.>XA.",
"A.:.:.N.A.A.:.B.-.-.J ~ O +XHXAX%  XHXGX` y f  XF.>X4X5XI.9XL.H.p | f ;.:.3.:X4X2X3 , $ $XHXGX} $XJXZX1 +.>.k V A.:.A.Z.4X3XA.g ",
";.:.:.m.A.A.A.:.l 4.J ~ O 3 %X#Xo 1 $X$XO $ e j t l -.&.G./.'.( u p f :.3.2XA.3.w.H Y I ` %X{.o _ $X{.o +.J.3XI.A.A.3XS.Z.m.c f ",
"g :.:.B.A.Z.Z.:.7 4.y.~ I =.=.H | & o H 2 y f M 6 8 3 O l.`.aXW.u p @.1.2X4X:.9 ^ + ! 5.O , , i $ w o f F.U.9X5XK.4X4XS.;.f f g ",
"*.*.3.A.m.m.m.v k { R p.p.~ R H T  .Y y t Y p...' R / T %.tXaXk.e p w.5Xh.8.4.4.` P P y.~ Y P P L ~ ' 4 _ P 4.o.......( T.T.G.f ",
"&.&.1.m.:.m.A.A.} T ! ~ ~ i.i.) Y ..^ U a R t.R _ U / $.O.E.yX+.e p 1.e.r...Y Y 4.i.p.i.i.i.Q a.Q ~ ^ W R ~ ~ } y { { / T.W.T.7.",
"&.@.1.A.:.:.K.3X6 7 < < 3 `  ...` 4 ' 4 q  .P 2 o.= %.| i s.d.w e @.<.<.X.{ {  .> < ' _ r ; < ` ' 4. .y _ P ' : 8 > 6 1 Y ^ $.c ",
"O.O.;.A.A.V.J.e.k p | &.@.| r 5 s.7.! [ : ' a.} k a *.>.i Q Q 4 e f :.| y y {  .: 4 X.$.d p | <./ 5. ., _ P 0.+.} } X.I H H ` l ",
"@.| ;.V.2XJ.1.} Q.pXjXxXxXiXl.%.bXlXpXE./ E.tX!.k M *.XXl L L 3 $ f ;.@.y i | X.~.pXcXcXxXhXzXcXsXpXW.( T.yXsXjXzXzXsXtXd.p.a.r.",
"@.p c OXJ.3.&.O W.iXlXbXjX~.G.k bXhXpXd.$.^.dXR.k V 1.>.k ~ p.=.9 g ,.p p <.@.i !.iXzXzXhXhXhXnXhXuXE.5.g.tXsXjXvXxXhXuXyXp.5.&.",
"| p ,.1.;.@...I y } 7.7.%.p :   Y.G.9.k   ;.w.b.b m.N.2.| a.p.X.p ,.<.f p 1.>.p   r o...u t p o.O.i 5   < 5.0.c.W E E T P ' i z ",
"} p <.,.p { .. .1 4 ` ` ` ` i p c z :.m . ;.h.g b A.H.;.| i.p...f A.3.c f 3.>.t : 6 o.{ ; q r 4 > : q q p X.p . : r t ' ' 4.%.B ",
"g s :.3.o.P y.u.d 3 DXDX] = X.p :.:.B.:.B.:.b.:.J.1.;.<.} H K f.@.:.D ,.3.e.>.r V S.:.>.S.N.:.>.*.,.<.E !.xXbXbXMXmXsXW.T.6.o.l ",
"g t :.3.o.H J u.% 4 VXAXq.= ;.:.A.A.A.A.A.A.A.A.x ,.A.2.} {  .5.f :.C n <.J.n 0 e 2XOXA.V c.S.n.F.M.C c.!.zXvXzXhXiXiX/.Y.1.k l ",
";.f m.J.&.R i.p.p , [.oXO.g ,.,.;.b.:.:.:.:.:.:.x -X:X,.p } X. .f Z Z Z A.K.:.M = } =.K.I.m..XC e.;.l b w.G.G.E k.E c.c.N.B.;.f ",
";.c :.A.%./ ( d.p e @ = b.n.m.n B.B.A.A.m.A.B.B.G >XJ.&.} I  . .+.b.Z b.L.(.D.a } oX{.J.I.D F Z h.2.F D b z     0 0 9 t ;.1.,.O.",
";.p ;.B.+.W s.E.9 f +.D.I.S.,X,X4X8X5X4X5X8X8X4X3Xe.&.! Y ! K ^ 6.H.D.L.)._.G.W #XDXCX-.g :X1XS qX1XG <X1XI.:.k q q l n A.3.:.O.",
"2.;.:.D.x.$.T.^.c $ y <.H.I.:XC.Z.Z.Z.S.S.Z.Z.:XL.X.I ! ~ K L f.8.H.J.L._._.^.W |.GXZX3 e A.C.n.J.3.D D J.L.H.@.b.g b.m.A.3.;.t ",
"e.;.3.>XN.W g.g.<.o {.{.O.b.-.f g v ;.v ;.g #.g e.O.} X.5.Y P f.@.,.,.3.P.^.G.W X q.3 o f p i j  .j 6 j %././.l.R.R./.G.G.,.b k "
};
