/* XPM */
static char *af96f482b0fd490db76044f5a0506c11IM6XlWFIhLpABWLU[] = {
/* columns rows colors chars-per-pixel */
"64 63 256 2 ",
"   c #271C15",
".  c #3B1B1C",
"X  c #361B1A",
"o  c #381B0B",
"O  c #1D2B1B",
"+  c #36260C",
"@  c #2A251A",
"#  c #34241C",
"$  c #3B221C",
"%  c #342A1D",
"&  c #3C2D1C",
"*  c #392716",
"=  c #393319",
"-  c #292408",
";  c #2B1C28",
":  c #341D24",
">  c #3C1D24",
",  c #341D2A",
"<  c #3C1D2B",
"1  c #371727",
"2  c #2A1C34",
"3  c #3B1A33",
"4  c #3B1D3A",
"5  c #351A37",
"6  c #2C2324",
"7  c #292728",
"8  c #332424",
"9  c #3B2424",
"0  c #342925",
"q  c #3C2B24",
"w  c #34242A",
"e  c #3B242B",
"r  c #352B2A",
"t  c #3B2C2C",
"y  c #3C312E",
"u  c #3C3A2C",
"i  c #363727",
"p  c #2C2836",
"a  c #342433",
"s  c #3B2433",
"d  c #332B33",
"f  c #3D2C33",
"g  c #3C263B",
"h  c #342A3C",
"j  c #3C2C3B",
"k  c #32243B",
"l  c #2C3837",
"z  c #353432",
"x  c #3D3332",
"c  c #3D3A35",
"v  c #3D333B",
"b  c #3D3D3B",
"n  c #353A35",
"m  c #2A3327",
"M  c #1C2F2B",
"N  c #57180B",
"B  c #570C1A",
"V  c #441C1C",
"C  c #491917",
"Z  c #5C1314",
"A  c #57181A",
"S  c #4B150A",
"D  c #640716",
"F  c #661817",
"G  c #6B1507",
"H  c #482408",
"J  c #5B2C0F",
"K  c #4C2314",
"L  c #44221C",
"P  c #482719",
"I  c #56281B",
"U  c #46361B",
"Y  c #5A371A",
"T  c #6C2A17",
"R  c #742D1A",
"E  c #67391C",
"W  c #773718",
"Q  c #6E2E07",
"!  c #5A0C25",
"~  c #431C24",
"^  c #4B1B25",
"/  c #441C2A",
"(  c #4C1C2B",
")  c #491627",
"_  c #551322",
"`  c #5A1424",
"'  c #531A25",
"]  c #5B1A23",
"[  c #5C142A",
"{  c #531B2A",
"}  c #5B1B2B",
"|  c #54132B",
" . c #431D33",
".. c #481A38",
"X. c #521735",
"o. c #480D27",
"O. c #620C24",
"+. c #670D25",
"@. c #651526",
"#. c #631838",
"$. c #442424",
"%. c #442B24",
"&. c #43232C",
"*. c #4B232B",
"=. c #432C2C",
"-. c #4A2B2C",
";. c #4B2824",
":. c #542C23",
">. c #53232D",
",. c #5B2329",
"<. c #572929",
"1. c #44332C",
"2. c #443B2C",
"3. c #493628",
"4. c #593427",
"5. c #432433",
"6. c #4B2533",
"7. c #432C32",
"8. c #4B2D33",
"9. c #43243A",
"0. c #4B223C",
"q. c #422C3B",
"w. c #4B2C3B",
"e. c #562734",
"r. c #423434",
"t. c #4B3435",
"y. c #433936",
"u. c #4B3B35",
"i. c #44353A",
"p. c #4A353A",
"a. c #453B39",
"s. c #4A3D3C",
"d. c #513334",
"f. c #533C34",
"g. c #593C32",
"h. c #53343B",
"j. c #513C3C",
"k. c #5E3838",
"l. c #68282A",
"z. c #66382A",
"x. c #683A35",
"c. c #743432",
"v. c #3B4438",
"b. c #3A432D",
"n. c #794319",
"m. c #6B4818",
"M. c #48442A",
"N. c #45423C",
"B. c #4A413E",
"V. c #4B413E",
"C. c #484637",
"Z. c #53433C",
"A. c #534B3C",
"S. c #574439",
"D. c #585334",
"F. c #534F2E",
"G. c #724325",
"H. c #654438",
"J. c #784D3B",
"K. c #4D411B",
"L. c #3C1B44",
"P. c #3C2E42",
"I. c #382543",
"U. c #3B3443",
"Y. c #373645",
"T. c #343350",
"R. c #491D47",
"E. c #581D47",
"W. c #4B1C55",
"Q. c #541D5B",
"!. c #601E5B",
"~. c #442345",
"^. c #492747",
"/. c #552446",
"(. c #433543",
"). c #453D42",
"_. c #4B3D42",
"`. c #463A4A",
"'. c #4A3848",
"]. c #543E42",
"[. c #583745",
"{. c #552459",
"}. c #563356",
"|. c #4D2951",
" X c #642B5D",
".X c #673A4F",
"XX c #4A1B63",
"oX c #551C6A",
"OX c #572665",
"+X c #572B75",
"@X c #693565",
"#X c #642B7A",
"$X c #643273",
"%X c #723172",
"&X c #611D6A",
"*X c #3D4743",
"=X c #3C5045",
"-X c #454442",
";X c #4E4542",
":X c #4D4442",
">X c #4C4A45",
",X c #4C4C4B",
"<X c #484747",
"1X c #524443",
"2X c #524A47",
"3X c #534A46",
"4X c #594A46",
"5X c #52434A",
"6X c #544B4A",
"7X c #594C4C",
"8X c #5A4544",
"9X c #4C5446",
"0X c #585347",
"qX c #584954",
"wX c #4D5259",
"eX c #654943",
"rX c #764B41",
"tX c #69534F",
"yX c #574963",
"uX c #8F3312",
"iX c #943924",
"pX c #893A2A",
"aX c #9D5716",
"sX c #8E4C14",
"dX c #A45815",
"fX c #AB520E",
"gX c #99631B",
"hX c #BB6717",
"jX c #AB6619",
"kX c #874C2C",
"lX c #954527",
"zX c #8B562B",
"xX c #9D5D28",
"cX c #8D4932",
"vX c #A65B24",
"bX c #A85031",
"nX c #926922",
"mX c #AB682A",
"MX c #CA6608",
"NX c #C86D11",
"BX c #C47528",
"VX c #F45E07",
"CX c #925F53",
"ZX c #6A1C8F",
"AX c #5F2487",
"SX c #682C87",
"DX c #693684",
"FX c #772E97",
"GX c #6B2AA7",
"HX c #7C33B0",
"JX c #571B8D",
"KX c #754792",
"LX c #8A2FB3",
"PX c #844497",
"IX c #8340A1",
"UX c #8635C8",
/* pixels */
"5XqXtXyXqX7X5X5X7.r.r.=.x 7.y r.t 1.t e t r.y.r.t t.s.p.y.y.t.u.s.].1Xp.r.t 1.y.1.f y r.=.x =.r.i.1.t t 7.t t r.y.a.s.s.p.a.y.y.",
"s._._._._.5X_._.r.r.r.r.r.r.r.r.y.r.r.y.s.p.x 9 t y.a.a.y.s.a.r.a.a.s.p.y.r.r.t r.r.r.r.r.r.r.y.r.r.p.s.y.t y y a.a.y.a.a.a.y.y.",
"i.f t 7.i.i.p.i.s.s._.j.:Xj.s.s.s.i.s.2X3XV.y 0 7.y.y.t.p.B.u.y t t r.y.s.s.p.y.s.].s.V.s.s.j.s.1.B.2X:Xu.r.x t y.y.a.a.s.s.y.y ",
"a.x f a.s.y.i.i.a.y.y.y.y.y.y.y.y.B.1X2X1Xy.r.y.t y.s.s.a.p.r.y y y x r.s.s.s.y.y.y.a.a.y.y.a.a.s.1X1Xp.r.r.y.r.r.y.s.:XB.a.y r ",
"i.y.a.-Xs.y.a.:Xa.s.a.a.a.a.a.a.a.:X1Xs.y.y.a.s.0 y.1XV.t.r.f t a.s.N.a.y.y.a.a.a.a.a.a.a.s.a.s.1X:Xp.r.r.u.y.=.y.a.V.B.y.y t y ",
"b y.a.a.c y.:X6XV.N.:XN.:XB.B.:X6X:Xy.y c a.a.c t p.1Xs.x t 1.r.a.a.s.a.a.N.B.1XB.N.:XB.B.:XN.N.B.p.y.y.p.s.y.t B.B.B.x r r x a.",
"y.a.a.c y.s.:X>X2X2X2X2X2X>X2X2X>Xa.y z x a.a.y r.s.V.r.t t r.y.c c a.N.N.:X>X2X2X6X2X2X2X2X2X2Xy.r.y.s.B.u.r.r.V.a.y y t x y.s.",
"a.N.N.a.-X>XN.c a.a.a.b a.a.c a.c u c a.N.a.c N.B.s.u.t 0 t r.y.N.a.a.N.;X:Xa.c a.y.v.a.c a.a.y.u.r.y.p.s.y.y.s.a.r.r t x a.s.y.",
"s.y.y.B.1X1Xy.r y y 7.=.t &.=.-.q c u.V.u.1.B.4X:Xr.r t y.y.a.a.a.y.s.3X2Xr.t y t =.=.9 t 7.1.e x a.s.a.y.a.B.s.0 r 0 x y.s.a.y.",
"y.s.V.:XB.s.a.y.s.y.y.s.1X1Xp.=.1.r.y.c y.y.B.V.y.y r x y.s.y.B.x s.2X1Xa.r.y.a.y.y.s.s.y.t t r.a.a.a.a.B.:XB.a.0 t r.y.y.y.a.a.",
"y.B.2X1Xa.r.a.1XN.s.N.1X7X6Xa.t V.s.y.y.C.1XB.1.0 r x y.s.y.y.p.y.1X1Xa.r.a.B.s.a.N.1X7Xs.t t a.s.a.a.s.:Xs.r.0 r r.s.a.y.r.a.V.",
"s.:X:Xs.y.y.a.B.c a.,X>Xa.t y x a.y.a._.3X1Xy.r y x y.s.a.y.y.y.2X:Xa.r.y.s.s.r.a.6X,Xa.z c c c r.y.s.>XB.y 8 8 x y.a.s.y.y.B.1X",
"6XV.r.r.y.s.a.y.b <X,Xa.7 6 r a.r.r.i.s._.a.f r r.y.s.a.y.a.s.V.2Xa.x y.s.a.y.y.6X,Xs.r 7 z c v y.y.p.Z.r.q r y.y.y.y.y.a.V.:X1X",
"3Xs.x x s.:Xs.r.,X5X:Xf w w x p.7X3X:Xs.r.r t x y.a.y.y.y.V.1X:Xr.r.y.B.y.x y.6X6Xi.w 7 r f ).5X4X5Xs.y.t t r.p.s.a.r.y.V.:XV.a.",
"a.a.y.y.s.B.:X:X5X_.7.d e s q.7.qX6X_.i.x r x i.y.a.y.y.s.:X:Xa.y y.a.a.y.y.V.6Xi.w : w d f p.5X4Xj.t.t t r.t.y.a.a.a.s.:Xs.y.x ",
"t r.:XV.a.s.1X7Xf f e w w , e e r r r 7 w x a.s.s.s.a.a.B.2Xa.y r.a.s.y.y.1X1XV.s f s , , e 7.f e t 8 9 7.j.s.t.y.a.B.1X1Xa.y t ",
"y.s.a.c N.6X3Xt.5.( ! O.O.( 0 7 6 8 8 q r.y.t.p.b x _.8Xf.3.:.P r.y.i.s.>X2Xi.r ^ B +.D ~ 8 0 t 0 r t c s.B.B.a.r.<X=Xv.;.,.I U ",
"x a.N.a.N.1Xp.&.< / | @.[ { y.v.r.y r.r.y.p.p.a.-X-X>X1Xf.4.g.4.r.i._.5X1Xp.s 9 / ! O.O.*.y.y.y.r.y.y.a.s.y.r.y 5X<Xv.y <.l.4.& ",
"r.a.N.:X:Xh.-.^ , ~ { [ } >.p.-Xs.s.s.s.s.y.y.s.<X>XV.r.$.4.x.l.x i.:X].p.&.> / 9 ^ ` { 8.B.N.a.s.s.:Xs.a.y.y.B.3X).z 9 } x.4.q ",
"a.N.:X2Xj.-.^ { s / / ( >.p.a.c x y.y.y.y.y.y.s.>X-Xt.$.. ^ } ] c i.p.7./ ~ / ( 8 > ^ e.y.c c a.y.y.a.a.r.s.2X7Xy.r.0 . ^ ,.<.%.",
"N.N.a.a.7.~ / ,.e e e *.h.s.s.N.y.a.N.B.s.a.B.:X>Xc t =.~ V >.{ z y.i.w > / ( ^ @ r h.].B.b c N.y.a.a.a.s.s.B.B.0 r 9 . ) ' ;.t ",
"a.y.c y 9 X / >.; e s.5X3X1X2X2X1X2X2X2X;X2X2X2Xc 0 r r.=.$.*.*.f i.i.e e 6.&.> r y.3X6X>X>X>X2X7X3X1X3X6X1Xa.t r r t &.*.-.7.r.",
"r.r.c z r 9 =.t.d i.<X,X>X>X1X2X2X;X:X;X;X:XN.:Xy 0 t y.r.7.p.7.z p.p.x t 7.r.f c N.:X>X>X>X1X1X3X1X:XV.:Xs.y.x x y r.r.t.i.r.7.",
"r.y.N.c c x y.p.7X,XU.b v.N.N.p.N.a.c c N.N.a.a.r.u.V.s.).6X,Xy.7.s.i.x d r.:X1X:Xa.c b s.y.r.r.8 r r 8 6 0 r.V.y.N.r.y.i.i.r.7.",
"x y r.u.p.i.y.).K.M.u.s.s.p.t.t.c a.a.a.a.y.c c s.a.y.r.V.6X1Xr.t t.y.t r.s.).:XeXS.8.r.1X'.U.v P.g k a 8 P m.zX4X2.y.c c s.r.f ",
"y.y.p.s.j._.s._.h z >X0Xi.U.5X_.a.a.a.c y.c c y y.r.y.:X:Xa.r.y.t s.].y.x i.r.d N.qX,Xs.a.).a.y.y r.1.:.G.vXBXNXtXZ.1XN.y.a.r.=.",
"y.a.B.B.Z._.V.p.I.p C.D.C.*X<Xv.:XN.N.N.a.a.y.r.r.y.s.:XB.x y y.t u.1Xu.r.s.s.t m v.,XC.C.a.y.y.s.j.j.d.z.cXlXfX1Xr.V.N.y.a.7.s ",
"y.s.B.y.s.Z.j.t.I.p 8 i Z.A.C.u x x x y.x y.c c y.V.:Xs.r.y.y.y t y.s.r.r.4X4Xt @ i c V.2Xc z a.p.i.(.U.P.s : > 9 % u.N.N.B.r.f ",
"u.s.N.a.y.S.H.x.0 L.W.XX[.j.V.V.a.N.N.B.N.B.N.B.:X:Xs.r.x s.a.r.x a.s.u.Z.eX4X$ R.Q.|.[.]._.C.C.M.b.C.v.v.n m m q 0 B.:XN._.r.e ",
"i.s.-XN.C.S..XJ.X W.GXGXQ.6.].yX7X7X7X7X7X6X2X2X6Xa.y y.a.y.y.B.r i.Z.s.S.tXg.* ZXFXSXW.^.tX0XF.9X9X9XC.A.0XS.P 1.q y.N.c a.x 7.",
"p.s.-XC.C.2.x.x.8 ~.SXDXR.9 -XwXN.N.B.a.N.s.a.a.s.r.x a.B.a.y.p.r i.1Xj.u.S.4.P oXDX$X~.q.'.a.2.`.`.*Xv i.].h.( 1.q y.c c y.7.s ",
"p._.:X-Xy.P P I u f ~. .;.U i l y y x c x c c x t y.a.y.a.V.a.y v 6X7Xu.%.P $ P =.r.q.r.f a 2 a / : r r z p P.U.j.r.:X-Xa.s.r.t ",
"s.B.V.B.y.r.r.y.= u y x i.x x a.y t & 0 t t = 2.t.[.'.`.-Xv.b ^.8.p.a.p.h.h.p.a.M.C.v.r.s p 7 9.3 7 O @ ~ a 0 & *.e.w.j 6.t.1.:.",
"y.y.y.r.y.y.a.B.y.B.a.y.s.B.N.>X& = 0 0 # t p.i.0X].i.7X9X= # 6.t.c n b y.t.y.N.g.8X2X. 1 r : X 3 % - 6 5.< 6 m C _ ~ , / &.t *.",
"r.x x y.y.a.p.a.5X-Xy.y.N.B.N.N.5.8.OXXX/ E.ZX&X2.B.C.N.3.U Y L y.n n b.2.3.M.D.qXPX%XL L $X{.* !.%X|.4 {.%XW.5 A F *.9 / e r &.",
"y r.y.s.B.s.a.a.w.i.c c C.>Xb v W.}.HXHXE. XLXFX@ -X9Xy o z.rX:.i.b v.C.3.F.D.F.$XUXLX&.t.UXGX1.%XLXFXR.%XUXFXe S D ^ 9 / 5.z 7.",
"y r.s.:Xs.a.s.V.s.Z.C.B.:Xs.7.w 5  .AX+XH >.#XQ.7 n *Xe . l..X4.t.p.B.S.H.cXrXK.^.JXAX8 h GXJXm /.SXXX  h.FX&Xo T l.>.8 / q.z p.",
"c y.a.a.a.a.:X3XS.4X3X>Xa.1.;.C 3 X a a - * g ; a X # > / 6.6.1.h.t.2.3.H.CXJ.K 5 < r 7 p ~.> H : <     , ..2 @ H.c.<.8 5.r.c j.",
"y.y.r.a.s.B.V.B.u.a.N.v e P n.kXkXn.n.G.R :.0. .L :.4.I 8.'.i.a.j.2.N.Z.k.x.x.L &.* = 0 s 8 H sXiXn.m.E (  .a k ;.l.9 6 7.u.u f.",
"a.y.r.s.2X1Xr.q r.f U.h . Y vXBXMXMXMXNXfXQ Z @.H z.kXz.-.i.z M.y.u C.2X&.V -.1.4.j n U -.9.m.NXVXNXNXfXG A *.. X &.w m Z.A.b.3.",
"r.a.1X2X:Xy.y.y.l < | #. .e [.l.%.h.}.v %.I _ E. .*.h.7.r.s.c v.p.Z.1Xt.x r.y.y.`.P.v B.y.a r M.h.}.^.*.Z [  .7 y t y r.a.a.b c ",
"a.B.:XB.a.y.y.p.h  .| } >   # * @ 9 e ; & C B } 9 &.t.i.a.a.b v.1X1Xp.r.x r.y.y.`.:XA.4X'.e : L 9 w r / ` F { g =.r.p.s.a.N.a.N.",
":X:Xs.r.r.a.B.a.I.0.[ ,.%.@ @ % m 8 9 8 e { N N & 1.u.a.s.-Xa.,X4Xs.r.y x y.y.a.U.F.F.B.g : . < 8 % % / _ N C L.r.u.s.s.a.a.N.N.",
"1XV.a.r.r.y.B.s.I.X.! ` $.6 k R.6 3 ~.I.g { S K q 1.y.1.a.a.).qXj.r.=.r.a.a.y.a.,XA.2.8 3 ~.0.3 5 s s 3 ~ N ;.'.V.s.a.a.a.B.:X2X",
":Xa.r.y.y.a.s.s.g ..B O.) W.DXZX: }.DX+X4 $.$.r.B.A.Z.V.].1X4X1Xr.=.r.p.a.y.y.:X5X_.s < |.$X$XR.{.#XOX3 V =.r.N.B.a.r.y.B.:XV.B.",
"B.y.r.a.B.a.y.a.j ^ +.@.| }.LXFXe @XPX$X5 $.7.T.:X1X3X8Xj.eXeX=.t t t y.y.a.s.:Xw.^.3 < }.KXDX..%XPX#X4 9 x z i a.c a.B.1X1Xp.1.",
"r.r.y.s.s.B.B.s.h ( ! ! o.g OXoX: .. X^.: ~ 5.Y.f w 7.t.;.H.J.H e t =.r.s.V.s.c 0.*.~ ~ ^.}.|.3 /. XW.e 2.A.<X,XN.-XN.1XB.t.r.t ",
"y y.a.a.s.V.V.y.k 9.B C U 7 d k r > ~ X X >.&.7 j ; < $.V rXCXT 9 t 1.a.1X2Xy.8 X.A K / 0.&.e s X $.$ e Z.D.Z.qX>X6X,X:Xr.t r.t.",
"-.1.t.s.y.C.y.2.^...{ ] ] _ | X.e. .) e l 1 o.s ..~ I *.P cXbXU w t s.[.[.e.( ( ( ( _ B ] B _ } Z _ ) s $.' >.s { e.&.K R W I x ",
"t.-.u.s.c a.V.V./ o.' A Z F D B _ ) )  .s _ D I 0.. C &.$.R iX* w r p.].h.6.^ ( B B Z Z F F Z A Z ` | / C D ` / 5.f 8 P R W Y 1.",
"8.-.u.s.y.a.1X1Xp 2 s 5./ 5.$.&.> < R.I.I.X.O.C s $ $.7.e Z F X 8 r r.8.8.&./ *.L.I.4  . . .3 4 | E./.s : { X.L.L.I.I.1 l.@.>.s ",
"-.=.y.B.s.Z.8Xj.s e q L %.t , P.T K e...p X.@.C d q -.(.j ] @.s 8 s 7.e e ~ / &.2 P.q.&.&.&.s s C { R.5 / #.,.e { 6.9 V ! [ X.P.",
"=.t r._.1X1Xh.6.uXfXfXfXjXzXJ >.hXfXuXR H F iXQ f y t.(.U.` +.g 8 r 7.t , 9 &.e Q sXdXdXdXdXvXxXdXlXl.) F iXdXaXfXgXsXQ G Z &.z ",
"=.e r.s.].j.8.> R bXdXjXmXzXC 5.NXaXsXW + I kXE v C.f.(.j ` B g w r.y.s t r.7.9 Q zXmXxXaXvXxXxXgXkXl./ ,.lXmXnXhXjXgXW G ` &.z ",
"7.t i.s.r.7.&.~ / < $.X 9 r p T.4.I ;.y M f h.x U.N.t.i.7.A D &.d p.i.f f p.i.w 2 j f 8 e e a s + : 5 p j ;.K + A K K I ! #.[.v ",
"7.7.p.i.e > / ~ w 1 9.~.9.s % % 9.q.q.v l 7.e.y.`.a.t.i.q.F D -.r.s.s.t 7._.s.r p k , < &.s w a q.9.h p 8 C ^ q.4 : 6 > [ #.:.+ ",
"x f v '.^.X.+.+.> E.HXLXW.6 y = y.y.u.y.y.u.y.y.p.s.a.=.( ' ' >.6.r.b Y.i.j.p.h z A.N.).r.2.M.`.s.i.i.;.n.mXMXfXhXfXaXW I $.j (.",
"x x i.(.d.) ! D s ^.SXSXR.w c U V.u.B.C.s.s.B.B.x N.-Xt.*.' *.&.7.2.v.b b s.a.d & M.u.s.C.M.a.5X3.2.u U n.jXjXaXvXvXzXG.z.f.i.j ",
"r.f i.).=.C Z F a : R.R.s y r.3.y.y.y.y.y.y.y.y.n C.,Xs.*.^ =.t 1.i b.v.a.Z.u.m o 7.0.s.S.2.b c f.i.Y.z 3.4.I V L P P %.%.t.7.r ",
"r.f i.s.$.C N T 2 # $ =.M.y.'.f.N.u.y.N.y.u.u.a.v.>X>Xt.( ' ^ e -.2.M.v.Z.H.g.$ o.{.OX'.S.p._.y.p.(.T.T.i.i.k 2 a d d f i.s.r.t ",
"r.7.a.s.%.C T pXp & ;.1.M.3XqX8X4X4X4X4X6X4X4X3X3Xp.t.>.[ ` { *.>.3.S.Z.g.J.z.C OXFXAX|.h.1X0XA.H.2XwXwX0X6Xa.Y.Y.U.U.b s.:Xy.q ",
"r.t a._.=.P z.c.d q 5.w.2.C.5XS.V.V.N.:XV.V.V.V.[.t.$.^ @.` [ e.>.3.Z.j.x.x.c.C XXSX+XL.e r.V.2.1.x *X*Xu.S.d.1.q r.t.u.p.s.r.t ",
"1.t a._.t ~ ,.l.q &.{.OX9 i b x 1.x c y r.1.r.x d.r.t *.} ` } >.q.p.C.a.t.H.z.L 2 ^.^.5 , & y e 7.h I.; L E J H J E 4.4.-.p.i.i."
};
