/* XPM */
static char * Reticle_xpm[] = {
"64 64 3 1",
" 	c None",
".	c #F8FFFF",
"+	c #FFFFFF",
"                                                                ",
"                                                                ",
"                                                                ",
"                                                                ",
"                                                                ",
"                                                                ",
"                                                                ",
"                                                                ",
"                                                                ",
"                                                                ",
"                                                                ",
"                                                                ",
"                            ........                            ",
"                            ........                            ",
"                               ..                               ",
"                            .. .. ..                            ",
"                            .. ++ ..                            ",
"                            .. ++ ..                            ",
"                            .. ++ ..                            ",
"                            .. ++ ..                            ",
"                            .. ++ ..                            ",
"                            .. ++ ..                            ",
"                            .. ++ ..                            ",
"                            .. ++ ..                            ",
"                            .. ++ ..                            ",
"                            .. ++ ..                            ",
"                            .. ++ ..                            ",
"                               ..                               ",
"            .. ............    ..    ............ ..            ",
"            .. ............          ............ ..            ",
"            ..                                    ..            ",
"            ....+++++++++++..      ..+++++++++++....            ",
"            ....+++++++++++..      ..+++++++++++....            ",
"            ..                                    ..            ",
"            .. ............          ............ ..            ",
"            .. ............    ..    ............ ..            ",
"                               ..                               ",
"                            .. ++ ..                            ",
"                            .. ++ ..                            ",
"                            .. ++ ..                            ",
"                            .. ++ ..                            ",
"                            .. ++ ..                            ",
"                            .. ++ ..                            ",
"                            .. ++ ..                            ",
"                            .. ++ ..                            ",
"                            .. ++ ..                            ",
"                            .. ++ ..                            ",
"                            .. ++ ..                            ",
"                            .. .. ..                            ",
"                               ..                               ",
"                            ........                            ",
"                            ........                            ",
"                                                                ",
"                                                                ",
"                                                                ",
"                                                                ",
"                                                                ",
"                                                                ",
"                                                                ",
"                                                                ",
"                                                                ",
"                                                                ",
"                                                                ",
"                                                                "};
