/* XPM */
static char *f20b07e3beaf4c5bccce9f70c54dec9amW27hGvOshQ7tE7j[] = {
/* columns rows colors chars-per-pixel */
"50 153 23 1 ",
"  c None",
". c black",
"X c gray1",
"o c #0E0E0E",
"O c gray9",
"+ c gray11",
"@ c gray13",
"# c gray16",
"$ c #2C2C2C",
"% c gray21",
"& c #414141",
"* c #4C4C4C",
"= c #555555",
"- c #5A5A5A",
"; c #606060",
": c #656565",
"> c DimGray",
", c #747474",
"< c gray49",
"1 c gray53",
"2 c #909090",
"3 c #9A9A9A",
"4 c #B4B4B4",
/* pixels */
"  ..@@@@@@@@@@@@@@@@@@@@@@@@@@@@@@@@@@@@@@@@@..   ",
" .=3333333333333333333333333333333333333333333>.  ",
".=333333333333333333333333333333333333333333333<. ",
".33333333333333333333333333333333333333333333333@ ",
"@33333333333333333333333333333333333333333333333&.",
".23333333333333333333333333333333333333333333333O ",
".%333333333333333333333333333333333333333333333;. ",
" .@>,,,,,,,,,,,,,,,,,,,,,,,,,,,,,,,,,,,,,,,,,,%.  ",
"  .......o##.+#####+.######oo######.####.......   ",
"        .-44#1444441#444444--444444.4444.         ",
"        .-44#1444441#444444--444444.4444.         ",
"        .-44#1444441#444444--444444.4444.         ",
"        .-44#1444441#444444--444444.4444.         ",
"        .-44#1444441#444444--444444.4444.         ",
"        .-44#1444441#444444--444444.4444.         ",
"        .-44#1444441#444444--444444.4444.         ",
"        .-44#1444441#444444--444444.4444.         ",
"        .-44#1444441#444444--444444.4444.         ",
"        .-44#1444441#444444--444444.4444.         ",
"        .-44#1444441#444444--444444.4444.         ",
"        .-44#1444441#444444--444444.4444.         ",
"        .-44#1444441#444444--444444.4444.         ",
"        .-44#1444441#444444--444444.4444.         ",
"        .-44#1444441#444444--444444.4444.         ",
"        .-44#1444441#444444--444444.4444.         ",
"        .-44#1444441#444444--444444.4444.         ",
"        .-44#1444441#444444--444444.4444.         ",
"        .-44#1444441#444444--444444.4444.         ",
"        .-44#1444441#444444--444444.4444.         ",
"        .-44#1444441#444444--444444.4444.         ",
"        .-44#1444441#444444--444444.4444.         ",
"        .-44#1444441#444444--444444.4444.         ",
"        .-44#1444441#444444--444444.4444.         ",
"        .-44#1444441#444444--444444.4444.         ",
"        .-44#1444441#444444--444444.4444.         ",
"        .-44#1444441#444444--444444.4444.         ",
"        .-44#1444441#444444--444444.4444.         ",
"        .-44#1444441#444444--444444.4444.         ",
"        .-44#1444441#444444--444444.4444.         ",
"        .-44#1444441#444444--444444.4444.         ",
"        .-44#1444441#444444--444444.4444.         ",
"        .-44#1444441#444444--444444.4444.         ",
"        .-44#1444441#444444--444444.4444.         ",
"        .-44#1444441#444444--444444.4444.         ",
"        .-44#1444441#444444--444444.4444.         ",
"        .-44#1444441#444444--444444.4444.         ",
"        .-44#1444441#444444--444444.4444.         ",
"        .-44#1444441#444444--444444.4444.         ",
"        .-44#1444441#444444--444444.4444.         ",
"        .-44#1444441#444444--444444.4444.         ",
"        .-44#1444441#444444--444444.4444.         ",
"        .-44#1444441#444444--444444.4444.         ",
"        .-44#1444441#444444--444444.4444.         ",
"        .-44#1444441#444444--444444.4444.         ",
"        .-44#1444441#444444--444444.4444.         ",
"        .-44#1444441#444444--444444.4444.         ",
"        .-44#1444441#444444--444444.4444.         ",
"        .-44#1444441#444444--444444.4444.         ",
"        .-44#1444441#444444--444444.4444.         ",
"        .-44#1444441#444444--444444.4444.         ",
"        .-44#1444441#444444--444444.4444.         ",
"        .-44#1444441#444444--444444.4444.         ",
"        .-44#1444441#444444--444444.4444.         ",
"        .-44#1444441#444444--444444.4444.         ",
"        .-44#1444441#444444--444444.4444.         ",
"        .-44#1444441#444444--444444.4444.         ",
"        .-44#1444441#444444--444444.4444.         ",
"        .-44#1444441#444444--444444.4444.         ",
"        .-44#1444441#444444--444444.4444.         ",
"        .-44#1444441#444444--444444.4444.         ",
"        .-44#1444441#444444--444444.4444.         ",
"        .-44#1444441#444444--444444.4444.         ",
"        .-44#1444441#444444--444444.4444.         ",
"        .-44#1444441#444444--444444.4444.         ",
"        .-44#1444441#444444--444444.4444.         ",
"        .-44#1444441#444444--444444.4444.         ",
"        .-44#1444441#444444--444444.4444.         ",
"        .-44#1444441#444444--444444.4444.         ",
"        .-44#1444441#444444--444444.4444.         ",
"        .-44#1444441#444444--444444.4444.         ",
"        .-44#1444441#444444--444444.4444.         ",
"        .-44#1444441#444444--444444.4444.         ",
"        .-44#1444441#444444--444444.4444.         ",
"        .-44#1444441#444444--444444.4444.         ",
"        .-44#1444441#444444--444444.4444.         ",
"        .-44#1444441#444444--444444.4444.         ",
"        .-44#1444441#444444--444444.4444.         ",
"        .-44#1444441#444444--444444.4444.         ",
"        .-44#1444441#444444--444444.4444.         ",
"        .-44#1444441#444444--444444.4444.         ",
"        .-44#1444441#444444--444444.4444.         ",
"        .-44#1444441#444444--444444.4444.         ",
"        .-44#1444441#444444--444444.4444.         ",
"        .-44#1444441#444444--444444.4444.         ",
"        .-44#1444441#444444--444444.4444.         ",
"        .-44#1444441#444444--444444.4444.         ",
"        .-44#1444441#444444--444444.4444.         ",
"        .-44#1444441#444444--444444.4444.         ",
"        .-44#1444441#444444--444444.4444.         ",
"        .-44#1444441#444444--444444.4444.         ",
"        .-44#1444441#444444--444444.4444.         ",
"        .-44#1444441#444444--444444.4444.         ",
"        .-44#1444441#444444--444444.4444.         ",
"        .-44#1444441#444444--444444.4444.         ",
"        .-44#1444441#444444--444444.4444.         ",
"        .-44#1444441#444444--444444.4444.         ",
"        .-44#1444441#444444--444444.4444.         ",
"        .-44#1444441#444444--444444.4444.         ",
"        .-44#1444441#444444--444444.4444.         ",
"        .-44#1444441#444444--444444.4444.         ",
"        .-44#1444441#444444--444444.4444.         ",
"        .-44#1444441#444444--444444.4444.         ",
"        .-44#1444441#444444--444444.4444.         ",
"        .-44#1444441#444444--444444.4444.         ",
"        .-44#1444441#444444--444444.4444.         ",
"        .-44#1444441#444444--444444.4444.         ",
"        .-44#1444441#444444--444444.4444.         ",
"        .-44#1444441#444444--444444.4444.         ",
"        .-44#1444441#444444--444444.4444.         ",
"        .-44#1444441#444444--444444.4444.         ",
"        .-44#1444441#444444--444444.4444.         ",
"        .-44#1444441#444444--444444.4444.         ",
"        .-44#1444441#444444--444444.4444.         ",
"        .-44#1444441#444444--444444.4444.         ",
"        .-44#1444441#444444--444444.4444.         ",
"        .-44#1444441#444444--444444.4444.         ",
"        .-44#1444441#444444--444444.4444.         ",
"        .-44#1444441#444444--444444.4444.         ",
"        .-44#1444441#444444--444444.4444.         ",
"        .-44#1444441#444444--444444.4444.         ",
"        .-44#1444441#444444--444444.4444.         ",
"        .-44#1444441#444444--444444.4444.         ",
"        .-44#1444441#444444--444444.4444.         ",
"        .-44#1444441#444444--444444.4444.         ",
"        .-44#1444441#444444--444444.4444.         ",
"        .-44#1444441#444444--444444.4444.         ",
"        .-44#1444441#444444--444444.4444.         ",
"        .-44#1444441#444444--444444.4444.         ",
"        .-44#1444441#444444--444444.4444.         ",
"        .-44#1444441#444444--444444.4444.         ",
"        .-44#1444441#444444--444444.4444.         ",
"        .-44#1444441#444444--444444.4444.         ",
"        .-44#1444441#444444--444444.4444.         ",
"        .&11+:11111:+111111&&111111.1111.         ",
"  ..O@@@@@@@@@@@@@@@@@@@@@@@@@@@@@@@@@@@@@@@@..   ",
" .*2333333333333333333333333333333333333333333,.. ",
".*333333333333333333333333333333333333333333333<. ",
".23333333333333333333333333333333333333333333333% ",
".33333333333333333333333333333333333333333333333*.",
".13333333333333333333333333333333333333333333333@ ",
".$333333333333333333333333333333333333333333333;. ",
" .@>,,,,,,,,,,,,,,,,,,,,,,,,,,,,,,,,,,,,,,,,,,*.  ",
"  .............................................   "
};
