/* XPM */
static char * wall_error_xpm[] = {
"64 64 57 1",
" 	c #00FF00",
".	c #00D400",
"+	c #00B200",
"@	c #00B500",
"#	c #00F100",
"$	c #00FE00",
"%	c #00BF00",
"&	c #00CB00",
"*	c #00B300",
"=	c #00C600",
"-	c #00CA00",
";	c #002200",
">	c #000000",
",	c #001C00",
"'	c #00C700",
")	c #00FC00",
"!	c #006500",
"~	c #007D00",
"{	c #00EB00",
"]	c #001600",
"^	c #007E00",
"/	c #002600",
"(	c #00F500",
"_	c #009B00",
":	c #00FB00",
"<	c #00D300",
"[	c #000D00",
"}	c #00BD00",
"|	c #00D600",
"1	c #002E00",
"2	c #00B800",
"3	c #00C500",
"4	c #00B900",
"5	c #00C200",
"6	c #00FD00",
"7	c #003200",
"8	c #004200",
"9	c #004F00",
"0	c #005100",
"a	c #006900",
"b	c #003B00",
"c	c #00BE00",
"d	c #005300",
"e	c #00A300",
"f	c #007F00",
"g	c #00A200",
"h	c #00E800",
"i	c #00E700",
"j	c #00BC00",
"k	c #007C00",
"l	c #006D00",
"m	c #00AF00",
"n	c #008E00",
"o	c #00D000",
"p	c #00D200",
"q	c #004000",
"r	c #FFFFFF",
"                                                                ",
"                                                                ",
"                                                                ",
"                            .++@#$%++&*++=                      ",
"                           -;>,' )!>~{]>>^                      ",
"                          -/>]'  )!~((]>>^                      ",
"                         -;>]'   )_( (]>>^                      ",
"                        -;>]=    $:  <[>[}                      ",
"                       -,>,=        |1>>2$                      ",
"                      -,>,3        |1>>4$                       ",
"                     -,>,5666666$ |7>[4$                        ",
"                    $8>>]900000036a>>96 )=                      ",
"                    $b>>>>>>>>>>c)!>>d$)ef                      ",
"                    $8,,,,,,]>>>c)!>>d)g>^                      ",
"                     hiiiiiij>>>c6k99lm99n                      ",
"                            o>>>c                               ",
"                            o>>>c                               ",
"                            pqqq5                               ",
"                            6:::6                               ",
"                                                                ",
"                                                                ",
"                                                                ",
"                                                                ",
"                                                                ",
"                                                                ",
"                                                                ",
"               rrrr                         rr                  ",
"                rr                          rr                  ",
"                rr         rrrr rr rr  rrr  rr rr               ",
"                rr        rr    rr rr rr rr rrrr                ",
"                rr         rrr  rr rr rr    rrr                 ",
"                rr           rr rr rr rr rr rrrr                ",
"               rrrr       rrrr   rrrr  rrr  rr rr               ",
"                                                                ",
"                                                                ",
"                                                                ",
"                                                                ",
"          rr                                 rr                 ",
"          rr                                                    ",
"    rrr   rr        rrrr   rrr  rrrrr  rrrr rrr  rrrr   rrrr    ",
"      rr rrrr       rr rr    rr rrr   rr     rr  rr rr rr rr    ",
"    rrrr  rr        rr rr  rrrr rr     rrr   rr  rr rr rr rr    ",
"   rr rr  rr        rr rr rr rr rr       rr  rr  rr rr rr rr    ",
"    rrrr   rr       rrrr   rrrr rr    rrrr  rrrr rr rr  rrrr    ",
"                    rr                                    rr    ",
"                    rr                                 rrrr     ",
"                                                                ",
"                                                                ",
"                                                                ",
"                                                                ",
"                                                                ",
"                                                                ",
"                                                                ",
"                                                                ",
"                                                                ",
"                                                                ",
"                                                                ",
"                                                                ",
"                                                                ",
"                                                                ",
"                                                                ",
"                                                                ",
"                                                                ",
"                                                                "};
